<mxfile host="65bd71144e" pages="5">
    <diagram id="3geHmlRmv1aPR4sEC61Y" name="arcitecture">
        <mxGraphModel dx="624" dy="335" grid="1" gridSize="10" guides="1" tooltips="1" connect="1" arrows="1" fold="1" page="1" pageScale="1" pageWidth="850" pageHeight="1100" math="0" shadow="0">
            <root>
                <mxCell id="kAUe14m6xHrd5K7obqvC-0"/>
                <mxCell id="kAUe14m6xHrd5K7obqvC-1" parent="kAUe14m6xHrd5K7obqvC-0"/>
                <mxCell id="GC436_5yx9EiPLnPEAUK-1" style="edgeStyle=orthogonalEdgeStyle;rounded=0;orthogonalLoop=1;jettySize=auto;html=1;exitX=0.5;exitY=1;exitDx=0;exitDy=0;" parent="kAUe14m6xHrd5K7obqvC-1" source="PNuphRb-bH3X0HqPgoSi-2" target="PNuphRb-bH3X0HqPgoSi-3" edge="1">
                    <mxGeometry relative="1" as="geometry"/>
                </mxCell>
                <mxCell id="PNuphRb-bH3X0HqPgoSi-2" value="&quot;Project Name&quot;" style="ellipse;whiteSpace=wrap;html=1;fillColor=#f8cecc;strokeColor=#b85450;shadow=1;" parent="kAUe14m6xHrd5K7obqvC-1" vertex="1">
                    <mxGeometry x="360" y="60" width="120" height="60" as="geometry"/>
                </mxCell>
                <mxCell id="GC436_5yx9EiPLnPEAUK-2" style="edgeStyle=orthogonalEdgeStyle;rounded=0;orthogonalLoop=1;jettySize=auto;html=1;entryX=0.5;entryY=0;entryDx=0;entryDy=0;" parent="kAUe14m6xHrd5K7obqvC-1" source="PNuphRb-bH3X0HqPgoSi-3" target="GC436_5yx9EiPLnPEAUK-0" edge="1">
                    <mxGeometry relative="1" as="geometry">
                        <Array as="points">
                            <mxPoint x="470" y="250"/>
                            <mxPoint x="520" y="250"/>
                        </Array>
                    </mxGeometry>
                </mxCell>
                <UserObject label="&quot;Task 1&quot;" id="PNuphRb-bH3X0HqPgoSi-3">
                    <mxCell style="whiteSpace=wrap;html=1;fillColor=#fff2cc;strokeColor=#d6b656;" parent="kAUe14m6xHrd5K7obqvC-1" vertex="1">
                        <mxGeometry x="400" y="160" width="120" height="60" as="geometry"/>
                    </mxCell>
                </UserObject>
                <mxCell id="PNuphRb-bH3X0HqPgoSi-4" value="&quot;Activity 1.1.1&quot;" style="whiteSpace=wrap;html=1;fillColor=#f5f5f5;strokeColor=#666666;fontColor=#333333;" parent="kAUe14m6xHrd5K7obqvC-1" vertex="1">
                    <mxGeometry x="510" y="420" width="120" height="60" as="geometry"/>
                </mxCell>
                <UserObject label="&quot;Subtask 1.1&quot;" link="data:page/id,GMb26j_7fUpc6wQmyc0r" id="GC436_5yx9EiPLnPEAUK-0">
                    <mxCell style="rounded=0;whiteSpace=wrap;html=1;shadow=1;fillColor=#d5e8d4;strokeColor=#82b366;" parent="kAUe14m6xHrd5K7obqvC-1" vertex="1">
                        <mxGeometry x="460" y="290" width="120" height="60" as="geometry"/>
                    </mxCell>
                </UserObject>
            </root>
        </mxGraphModel>
    </diagram>
    <diagram id="GMb26j_7fUpc6wQmyc0r" name="gg">
        <mxGraphModel dx="624" dy="470" grid="1" gridSize="10" guides="1" tooltips="1" connect="1" arrows="1" fold="1" page="1" pageScale="1" pageWidth="850" pageHeight="1100" math="0" shadow="0">
            <root>
                <mxCell id="0"/>
                <mxCell id="1" parent="0"/>
                <mxCell id="r-jyNzJNO29ECmgR-zEt-3" style="edgeStyle=orthogonalEdgeStyle;rounded=0;orthogonalLoop=1;jettySize=auto;html=1;exitX=0.5;exitY=1;exitDx=0;exitDy=0;entryX=0.5;entryY=0;entryDx=0;entryDy=0;" parent="1" source="r-jyNzJNO29ECmgR-zEt-1" target="r-jyNzJNO29ECmgR-zEt-2" edge="1">
                    <mxGeometry relative="1" as="geometry"/>
                </mxCell>
                <mxCell id="r-jyNzJNO29ECmgR-zEt-1" value="Get updated api statics" style="rounded=1;whiteSpace=wrap;html=1;" parent="1" vertex="1">
                    <mxGeometry x="360" y="120" width="120" height="60" as="geometry"/>
                </mxCell>
                <mxCell id="r-jyNzJNO29ECmgR-zEt-14" style="edgeStyle=orthogonalEdgeStyle;rounded=0;orthogonalLoop=1;jettySize=auto;html=1;" parent="1" source="r-jyNzJNO29ECmgR-zEt-2" target="r-jyNzJNO29ECmgR-zEt-4" edge="1">
                    <mxGeometry relative="1" as="geometry"/>
                </mxCell>
                <mxCell id="r-jyNzJNO29ECmgR-zEt-2" value="Create request &lt;br&gt;from inputs and api statics" style="rounded=1;whiteSpace=wrap;html=1;" parent="1" vertex="1">
                    <mxGeometry x="360" y="240" width="120" height="60" as="geometry"/>
                </mxCell>
                <mxCell id="r-jyNzJNO29ECmgR-zEt-4" value="Request data" style="rounded=1;whiteSpace=wrap;html=1;" parent="1" vertex="1">
                    <mxGeometry x="360" y="360" width="120" height="60" as="geometry"/>
                </mxCell>
                <mxCell id="r-jyNzJNO29ECmgR-zEt-10" style="edgeStyle=orthogonalEdgeStyle;rounded=0;orthogonalLoop=1;jettySize=auto;html=1;entryX=0;entryY=0.167;entryDx=0;entryDy=0;entryPerimeter=0;" parent="1" source="r-jyNzJNO29ECmgR-zEt-5" target="r-jyNzJNO29ECmgR-zEt-2" edge="1">
                    <mxGeometry relative="1" as="geometry"/>
                </mxCell>
                <mxCell id="r-jyNzJNO29ECmgR-zEt-5" value="dataset" style="text;html=1;strokeColor=none;fillColor=none;align=center;verticalAlign=middle;whiteSpace=wrap;rounded=0;" parent="1" vertex="1">
                    <mxGeometry x="160" y="240" width="40" height="20" as="geometry"/>
                </mxCell>
                <mxCell id="r-jyNzJNO29ECmgR-zEt-11" style="edgeStyle=orthogonalEdgeStyle;rounded=0;orthogonalLoop=1;jettySize=auto;html=1;" parent="1" source="r-jyNzJNO29ECmgR-zEt-6" edge="1">
                    <mxGeometry relative="1" as="geometry">
                        <mxPoint x="361" y="270" as="targetPoint"/>
                        <Array as="points">
                            <mxPoint x="361" y="270"/>
                        </Array>
                    </mxGeometry>
                </mxCell>
                <mxCell id="r-jyNzJNO29ECmgR-zEt-6" value="areas" style="text;html=1;strokeColor=none;fillColor=none;align=center;verticalAlign=middle;whiteSpace=wrap;rounded=0;" parent="1" vertex="1">
                    <mxGeometry x="160" y="260" width="40" height="20" as="geometry"/>
                </mxCell>
                <mxCell id="r-jyNzJNO29ECmgR-zEt-12" style="edgeStyle=orthogonalEdgeStyle;rounded=0;orthogonalLoop=1;jettySize=auto;html=1;entryX=0;entryY=0.833;entryDx=0;entryDy=0;entryPerimeter=0;" parent="1" source="r-jyNzJNO29ECmgR-zEt-7" target="r-jyNzJNO29ECmgR-zEt-2" edge="1">
                    <mxGeometry relative="1" as="geometry"/>
                </mxCell>
                <mxCell id="r-jyNzJNO29ECmgR-zEt-7" value="timeperiod" style="text;html=1;strokeColor=none;fillColor=none;align=center;verticalAlign=middle;whiteSpace=wrap;rounded=0;" parent="1" vertex="1">
                    <mxGeometry x="140" y="280" width="60" height="20" as="geometry"/>
                </mxCell>
                <mxCell id="r-jyNzJNO29ECmgR-zEt-13" value="&lt;b&gt;&lt;font style=&quot;font-size: 20px&quot;&gt;Main&lt;br&gt;Process diagram&lt;/font&gt;&lt;/b&gt;" style="text;html=1;strokeColor=none;fillColor=none;align=center;verticalAlign=middle;whiteSpace=wrap;rounded=0;" parent="1" vertex="1">
                    <mxGeometry x="280" y="40" width="280" height="40" as="geometry"/>
                </mxCell>
            </root>
        </mxGraphModel>
    </diagram>
    <diagram id="ni4FQYPYPjBE14FATcqT" name="Page-3">
        <mxGraphModel dx="624" dy="470" grid="1" gridSize="10" guides="1" tooltips="1" connect="1" arrows="1" fold="1" page="1" pageScale="1" pageWidth="850" pageHeight="1100" math="0" shadow="0">
            <root>
                <mxCell id="mVjQ74zmoZiblPuF5BI9-0"/>
                <mxCell id="mVjQ74zmoZiblPuF5BI9-1" parent="mVjQ74zmoZiblPuF5BI9-0"/>
                <mxCell id="mVjQ74zmoZiblPuF5BI9-10" value="ProjectMain" style="swimlane;shadow=1;" parent="mVjQ74zmoZiblPuF5BI9-1" vertex="1">
                    <mxGeometry x="190" y="70" width="530" height="520" as="geometry">
                        <mxRectangle x="190" y="70" width="130" height="23" as="alternateBounds"/>
                    </mxGeometry>
                </mxCell>
                <mxCell id="mVjQ74zmoZiblPuF5BI9-21" style="edgeStyle=orthogonalEdgeStyle;rounded=0;orthogonalLoop=1;jettySize=auto;html=1;exitX=0.5;exitY=1;exitDx=0;exitDy=0;" parent="mVjQ74zmoZiblPuF5BI9-10" source="mVjQ74zmoZiblPuF5BI9-12" target="mVjQ74zmoZiblPuF5BI9-14" edge="1">
                    <mxGeometry relative="1" as="geometry"/>
                </mxCell>
                <mxCell id="mVjQ74zmoZiblPuF5BI9-22" style="edgeStyle=orthogonalEdgeStyle;rounded=0;orthogonalLoop=1;jettySize=auto;html=1;exitX=0.5;exitY=1;exitDx=0;exitDy=0;" parent="mVjQ74zmoZiblPuF5BI9-10" source="mVjQ74zmoZiblPuF5BI9-12" target="mVjQ74zmoZiblPuF5BI9-15" edge="1">
                    <mxGeometry relative="1" as="geometry"/>
                </mxCell>
                <mxCell id="mVjQ74zmoZiblPuF5BI9-23" style="edgeStyle=orthogonalEdgeStyle;rounded=0;orthogonalLoop=1;jettySize=auto;html=1;exitX=0.5;exitY=1;exitDx=0;exitDy=0;" parent="mVjQ74zmoZiblPuF5BI9-10" source="mVjQ74zmoZiblPuF5BI9-12" target="mVjQ74zmoZiblPuF5BI9-16" edge="1">
                    <mxGeometry relative="1" as="geometry"/>
                </mxCell>
                <mxCell id="mVjQ74zmoZiblPuF5BI9-12" value="Entso-E Transparency Platform Client" style="ellipse;whiteSpace=wrap;html=1;shadow=1;fillColor=#f8cecc;strokeColor=#b85450;" parent="mVjQ74zmoZiblPuF5BI9-10" vertex="1">
                    <mxGeometry x="205" y="50" width="120" height="80" as="geometry"/>
                </mxCell>
                <mxCell id="mVjQ74zmoZiblPuF5BI9-26" style="edgeStyle=orthogonalEdgeStyle;rounded=0;orthogonalLoop=1;jettySize=auto;html=1;exitX=0.5;exitY=1;exitDx=0;exitDy=0;entryX=0.5;entryY=0;entryDx=0;entryDy=0;" parent="mVjQ74zmoZiblPuF5BI9-10" source="mVjQ74zmoZiblPuF5BI9-14" target="mVjQ74zmoZiblPuF5BI9-25" edge="1">
                    <mxGeometry relative="1" as="geometry">
                        <Array as="points">
                            <mxPoint x="110" y="240"/>
                            <mxPoint x="130" y="240"/>
                        </Array>
                    </mxGeometry>
                </mxCell>
                <mxCell id="mVjQ74zmoZiblPuF5BI9-14" value="&lt;b&gt;Scope&lt;/b&gt;" style="whiteSpace=wrap;html=1;shadow=1;fillColor=#fff2cc;strokeColor=#d6b656;" parent="mVjQ74zmoZiblPuF5BI9-10" vertex="1">
                    <mxGeometry x="50" y="170" width="120" height="60" as="geometry"/>
                </mxCell>
                <UserObject label="&lt;b&gt;Process&lt;/b&gt;" link="data:page/id,-UvmZF1zVRCq8kY2PLHJ" id="mVjQ74zmoZiblPuF5BI9-15">
                    <mxCell style="whiteSpace=wrap;html=1;shadow=1;fillColor=#fff2cc;strokeColor=#d6b656;" parent="mVjQ74zmoZiblPuF5BI9-10" vertex="1">
                        <mxGeometry x="205" y="170" width="120" height="60" as="geometry"/>
                    </mxCell>
                </UserObject>
                <mxCell id="mVjQ74zmoZiblPuF5BI9-16" value="&lt;b&gt;Process&lt;/b&gt;" style="whiteSpace=wrap;html=1;shadow=1;fillColor=#fff2cc;strokeColor=#d6b656;" parent="mVjQ74zmoZiblPuF5BI9-10" vertex="1">
                    <mxGeometry x="360" y="170" width="120" height="60" as="geometry"/>
                </mxCell>
                <mxCell id="mVjQ74zmoZiblPuF5BI9-24" value="Timeframes" style="whiteSpace=wrap;html=1;shadow=1;fillColor=#f5f5f5;strokeColor=#666666;fontColor=#333333;" parent="mVjQ74zmoZiblPuF5BI9-10" vertex="1">
                    <mxGeometry x="90" y="300" width="80" height="30" as="geometry"/>
                </mxCell>
                <mxCell id="mVjQ74zmoZiblPuF5BI9-27" style="edgeStyle=orthogonalEdgeStyle;rounded=0;orthogonalLoop=1;jettySize=auto;html=1;exitX=0.5;exitY=1;exitDx=0;exitDy=0;entryX=0.5;entryY=0;entryDx=0;entryDy=0;" parent="mVjQ74zmoZiblPuF5BI9-10" source="mVjQ74zmoZiblPuF5BI9-25" target="mVjQ74zmoZiblPuF5BI9-24" edge="1">
                    <mxGeometry relative="1" as="geometry"/>
                </mxCell>
                <mxCell id="mVjQ74zmoZiblPuF5BI9-25" value="Objectives" style="whiteSpace=wrap;html=1;shadow=1;fillColor=#f5f5f5;strokeColor=#666666;fontColor=#333333;" parent="mVjQ74zmoZiblPuF5BI9-10" vertex="1">
                    <mxGeometry x="90" y="250" width="80" height="30" as="geometry"/>
                </mxCell>
                <mxCell id="mVjQ74zmoZiblPuF5BI9-28" style="edgeStyle=orthogonalEdgeStyle;rounded=0;orthogonalLoop=1;jettySize=auto;html=1;exitX=0.5;exitY=1;exitDx=0;exitDy=0;entryX=0.5;entryY=0;entryDx=0;entryDy=0;" parent="mVjQ74zmoZiblPuF5BI9-10" target="mVjQ74zmoZiblPuF5BI9-31" edge="1">
                    <mxGeometry relative="1" as="geometry">
                        <mxPoint x="265" y="230" as="sourcePoint"/>
                        <Array as="points">
                            <mxPoint x="265" y="240"/>
                            <mxPoint x="285" y="240"/>
                        </Array>
                    </mxGeometry>
                </mxCell>
                <mxCell id="mVjQ74zmoZiblPuF5BI9-29" value="Timeframes" style="whiteSpace=wrap;html=1;shadow=1;fillColor=#f5f5f5;strokeColor=#666666;fontColor=#333333;" parent="mVjQ74zmoZiblPuF5BI9-10" vertex="1">
                    <mxGeometry x="245" y="300" width="80" height="30" as="geometry"/>
                </mxCell>
                <mxCell id="mVjQ74zmoZiblPuF5BI9-30" style="edgeStyle=orthogonalEdgeStyle;rounded=0;orthogonalLoop=1;jettySize=auto;html=1;exitX=0.5;exitY=1;exitDx=0;exitDy=0;entryX=0.5;entryY=0;entryDx=0;entryDy=0;" parent="mVjQ74zmoZiblPuF5BI9-10" source="mVjQ74zmoZiblPuF5BI9-31" target="mVjQ74zmoZiblPuF5BI9-29" edge="1">
                    <mxGeometry relative="1" as="geometry"/>
                </mxCell>
                <mxCell id="mVjQ74zmoZiblPuF5BI9-31" value="Objectives" style="whiteSpace=wrap;html=1;shadow=1;fillColor=#f5f5f5;strokeColor=#666666;fontColor=#333333;" parent="mVjQ74zmoZiblPuF5BI9-10" vertex="1">
                    <mxGeometry x="245" y="250" width="80" height="30" as="geometry"/>
                </mxCell>
            </root>
        </mxGraphModel>
    </diagram>
    <diagram id="-UvmZF1zVRCq8kY2PLHJ" name="process">
        <mxGraphModel dx="624" dy="335" grid="1" gridSize="10" guides="1" tooltips="1" connect="1" arrows="1" fold="1" page="1" pageScale="1" pageWidth="850" pageHeight="1100" math="0" shadow="0">
            <root>
                <mxCell id="PYFcoCn7AMZcuaxODCYF-0"/>
                <mxCell id="PYFcoCn7AMZcuaxODCYF-1" parent="PYFcoCn7AMZcuaxODCYF-0"/>
                <mxCell id="PYFcoCn7AMZcuaxODCYF-2" value="MAIN PROJECT" style="whiteSpace=wrap;rounded=1;shadow=1;fillColor=#10739E;strokeColor=none;fontColor=#FFFFFF;fontStyle=1;fontSize=24" parent="PYFcoCn7AMZcuaxODCYF-1" vertex="1">
                    <mxGeometry x="1050" y="160" width="340" height="60" as="geometry"/>
                </mxCell>
                <mxCell id="PYFcoCn7AMZcuaxODCYF-3" value="SUB-PROJECT 1" style="whiteSpace=wrap;rounded=1;fillColor=#F2931E;strokeColor=none;shadow=1;fontColor=#FFFFFF;fontStyle=1;fontSize=14" parent="PYFcoCn7AMZcuaxODCYF-1" vertex="1">
                    <mxGeometry x="210" y="279.9999999999998" width="140" height="60" as="geometry"/>
                </mxCell>
                <mxCell id="PYFcoCn7AMZcuaxODCYF-4" value="SUB-PROJECT 2" style="whiteSpace=wrap;rounded=1;fillColor=#F2931E;strokeColor=none;shadow=1;fontColor=#FFFFFF;fontStyle=1;fontSize=14" parent="PYFcoCn7AMZcuaxODCYF-1" vertex="1">
                    <mxGeometry x="580" y="279.9999999999998" width="140" height="60" as="geometry"/>
                </mxCell>
                <mxCell id="PYFcoCn7AMZcuaxODCYF-5" value="SUB-PROJECT 6" style="whiteSpace=wrap;rounded=1;fillColor=#F2931E;strokeColor=none;shadow=1;fontColor=#FFFFFF;fontStyle=1;fontSize=14" parent="PYFcoCn7AMZcuaxODCYF-1" vertex="1">
                    <mxGeometry x="2060" y="279.9999999999998" width="140" height="60" as="geometry"/>
                </mxCell>
                <mxCell id="PYFcoCn7AMZcuaxODCYF-6" value="SUB-PROJECT 3" style="whiteSpace=wrap;rounded=1;fillColor=#F2931E;strokeColor=none;shadow=1;fontColor=#FFFFFF;fontStyle=1;fontSize=14" parent="PYFcoCn7AMZcuaxODCYF-1" vertex="1">
                    <mxGeometry x="950" y="279.9999999999998" width="140" height="60" as="geometry"/>
                </mxCell>
                <mxCell id="PYFcoCn7AMZcuaxODCYF-7" value="SUB-PROJECT 4" style="whiteSpace=wrap;rounded=1;fillColor=#F2931E;strokeColor=none;shadow=1;fontColor=#FFFFFF;fontStyle=1;fontSize=14" parent="PYFcoCn7AMZcuaxODCYF-1" vertex="1">
                    <mxGeometry x="1320" y="279.9999999999998" width="140" height="60" as="geometry"/>
                </mxCell>
                <mxCell id="PYFcoCn7AMZcuaxODCYF-8" value="SUB-PROJECT 5" style="whiteSpace=wrap;rounded=1;fillColor=#F2931E;strokeColor=none;shadow=1;fontColor=#FFFFFF;fontStyle=1;fontSize=14" parent="PYFcoCn7AMZcuaxODCYF-1" vertex="1">
                    <mxGeometry x="1690" y="279.9999999999998" width="140" height="60" as="geometry"/>
                </mxCell>
                <mxCell id="PYFcoCn7AMZcuaxODCYF-9" value="SUB-TASK 1" style="whiteSpace=wrap;rounded=1;fillColor=#12AAB5;strokeColor=none;shadow=1;fontColor=#FFFFFF;" parent="PYFcoCn7AMZcuaxODCYF-1" vertex="1">
                    <mxGeometry x="120" y="410.0000000000001" width="120" height="60" as="geometry"/>
                </mxCell>
                <mxCell id="PYFcoCn7AMZcuaxODCYF-10" value="SUB-TASK 2" style="whiteSpace=wrap;rounded=1;fillColor=#12AAB5;strokeColor=none;shadow=1;fontColor=#FFFFFF;" parent="PYFcoCn7AMZcuaxODCYF-1" vertex="1">
                    <mxGeometry x="320" y="410.0000000000001" width="120" height="60" as="geometry"/>
                </mxCell>
                <mxCell id="PYFcoCn7AMZcuaxODCYF-11" value="WORK&#10;PACKAGE 1" style="whiteSpace=wrap;rounded=1;fillColor=#999999;strokeColor=none;shadow=1;fontColor=#FFFFFF;fontStyle=0" parent="PYFcoCn7AMZcuaxODCYF-1" vertex="1">
                    <mxGeometry x="119.99999999999994" y="510.0000000000001" width="120" height="60" as="geometry"/>
                </mxCell>
                <mxCell id="PYFcoCn7AMZcuaxODCYF-12" value="WORK&#10;PACKAGE 2" style="whiteSpace=wrap;rounded=1;fillColor=#999999;strokeColor=none;shadow=1;fontColor=#FFFFFF;fontStyle=0" parent="PYFcoCn7AMZcuaxODCYF-1" vertex="1">
                    <mxGeometry x="120.00000000000011" y="590.0000000000001" width="120" height="60" as="geometry"/>
                </mxCell>
                <mxCell id="PYFcoCn7AMZcuaxODCYF-13" value="WORK&#10;PACKAGE 3" style="whiteSpace=wrap;rounded=1;fillColor=#999999;strokeColor=none;shadow=1;fontColor=#FFFFFF;fontStyle=0" parent="PYFcoCn7AMZcuaxODCYF-1" vertex="1">
                    <mxGeometry x="120.00000000000006" y="670.0000000000001" width="120" height="60" as="geometry"/>
                </mxCell>
                <mxCell id="PYFcoCn7AMZcuaxODCYF-14" value="WORK&#10;PACKAGE 4" style="whiteSpace=wrap;rounded=1;fillColor=#999999;strokeColor=none;shadow=1;fontColor=#FFFFFF;fontStyle=0" parent="PYFcoCn7AMZcuaxODCYF-1" vertex="1">
                    <mxGeometry x="120.0000000000002" y="750.0000000000001" width="120" height="60" as="geometry"/>
                </mxCell>
                <mxCell id="PYFcoCn7AMZcuaxODCYF-15" value="WORK&#10;PACKAGE 5" style="whiteSpace=wrap;rounded=1;fillColor=#999999;strokeColor=none;shadow=1;fontColor=#FFFFFF;fontStyle=0" parent="PYFcoCn7AMZcuaxODCYF-1" vertex="1">
                    <mxGeometry x="120.00000000000034" y="830.0000000000001" width="120" height="60" as="geometry"/>
                </mxCell>
                <mxCell id="PYFcoCn7AMZcuaxODCYF-16" value="WORK&#10;PACKAGE 1" style="whiteSpace=wrap;rounded=1;fillColor=#999999;strokeColor=none;shadow=1;fontColor=#FFFFFF;fontStyle=0" parent="PYFcoCn7AMZcuaxODCYF-1" vertex="1">
                    <mxGeometry x="319.9999999999996" y="510.0000000000001" width="120" height="60" as="geometry"/>
                </mxCell>
                <mxCell id="PYFcoCn7AMZcuaxODCYF-17" value="WORK&#10;PACKAGE 2" style="whiteSpace=wrap;rounded=1;fillColor=#999999;strokeColor=none;shadow=1;fontColor=#FFFFFF;fontStyle=0" parent="PYFcoCn7AMZcuaxODCYF-1" vertex="1">
                    <mxGeometry x="319.9999999999998" y="590.0000000000001" width="120" height="60" as="geometry"/>
                </mxCell>
                <mxCell id="PYFcoCn7AMZcuaxODCYF-18" value="WORK&#10;PACKAGE 3" style="whiteSpace=wrap;rounded=1;fillColor=#999999;strokeColor=none;shadow=1;fontColor=#FFFFFF;fontStyle=0" parent="PYFcoCn7AMZcuaxODCYF-1" vertex="1">
                    <mxGeometry x="319.9999999999997" y="670.0000000000001" width="120" height="60" as="geometry"/>
                </mxCell>
                <mxCell id="PYFcoCn7AMZcuaxODCYF-19" value="WORK&#10;PACKAGE 4" style="whiteSpace=wrap;rounded=1;fillColor=#999999;strokeColor=none;shadow=1;fontColor=#FFFFFF;fontStyle=0" parent="PYFcoCn7AMZcuaxODCYF-1" vertex="1">
                    <mxGeometry x="319.9999999999999" y="750.0000000000001" width="120" height="60" as="geometry"/>
                </mxCell>
                <mxCell id="PYFcoCn7AMZcuaxODCYF-20" value="WORK&#10;PACKAGE 5" style="whiteSpace=wrap;rounded=1;fillColor=#999999;strokeColor=none;shadow=1;fontColor=#FFFFFF;fontStyle=0" parent="PYFcoCn7AMZcuaxODCYF-1" vertex="1">
                    <mxGeometry x="320" y="830.0000000000001" width="120" height="60" as="geometry"/>
                </mxCell>
                <mxCell id="PYFcoCn7AMZcuaxODCYF-21" value="SUB-TASK 1" style="whiteSpace=wrap;rounded=1;fillColor=#12AAB5;strokeColor=none;shadow=1;fontColor=#FFFFFF;" parent="PYFcoCn7AMZcuaxODCYF-1" vertex="1">
                    <mxGeometry x="489.9999999999998" y="410.0000000000001" width="120" height="60" as="geometry"/>
                </mxCell>
                <mxCell id="PYFcoCn7AMZcuaxODCYF-22" value="SUB-TASK 2" style="whiteSpace=wrap;rounded=1;fillColor=#12AAB5;strokeColor=none;shadow=1;fontColor=#FFFFFF;" parent="PYFcoCn7AMZcuaxODCYF-1" vertex="1">
                    <mxGeometry x="689.9999999999998" y="410.0000000000001" width="120" height="60" as="geometry"/>
                </mxCell>
                <mxCell id="PYFcoCn7AMZcuaxODCYF-23" value="WORK&#10;PACKAGE 1" style="whiteSpace=wrap;rounded=1;fillColor=#999999;strokeColor=none;shadow=1;fontColor=#FFFFFF;fontStyle=0" parent="PYFcoCn7AMZcuaxODCYF-1" vertex="1">
                    <mxGeometry x="489.9999999999998" y="510.0000000000001" width="120" height="60" as="geometry"/>
                </mxCell>
                <mxCell id="PYFcoCn7AMZcuaxODCYF-24" value="WORK&#10;PACKAGE 2" style="whiteSpace=wrap;rounded=1;fillColor=#999999;strokeColor=none;shadow=1;fontColor=#FFFFFF;fontStyle=0" parent="PYFcoCn7AMZcuaxODCYF-1" vertex="1">
                    <mxGeometry x="489.9999999999999" y="590.0000000000001" width="120" height="60" as="geometry"/>
                </mxCell>
                <mxCell id="PYFcoCn7AMZcuaxODCYF-25" value="WORK&#10;PACKAGE 3" style="whiteSpace=wrap;rounded=1;fillColor=#999999;strokeColor=none;shadow=1;fontColor=#FFFFFF;fontStyle=0" parent="PYFcoCn7AMZcuaxODCYF-1" vertex="1">
                    <mxGeometry x="489.9999999999998" y="670.0000000000001" width="120" height="60" as="geometry"/>
                </mxCell>
                <mxCell id="PYFcoCn7AMZcuaxODCYF-26" value="WORK&#10;PACKAGE 4" style="whiteSpace=wrap;rounded=1;fillColor=#999999;strokeColor=none;shadow=1;fontColor=#FFFFFF;fontStyle=0" parent="PYFcoCn7AMZcuaxODCYF-1" vertex="1">
                    <mxGeometry x="490" y="750.0000000000001" width="120" height="60" as="geometry"/>
                </mxCell>
                <mxCell id="PYFcoCn7AMZcuaxODCYF-27" value="WORK&#10;PACKAGE 5" style="whiteSpace=wrap;rounded=1;fillColor=#999999;strokeColor=none;shadow=1;fontColor=#FFFFFF;fontStyle=0" parent="PYFcoCn7AMZcuaxODCYF-1" vertex="1">
                    <mxGeometry x="490.0000000000001" y="830.0000000000001" width="120" height="60" as="geometry"/>
                </mxCell>
                <mxCell id="PYFcoCn7AMZcuaxODCYF-28" value="WORK&#10;PACKAGE 1" style="whiteSpace=wrap;rounded=1;fillColor=#999999;strokeColor=none;shadow=1;fontColor=#FFFFFF;fontStyle=0" parent="PYFcoCn7AMZcuaxODCYF-1" vertex="1">
                    <mxGeometry x="689.9999999999993" y="510.0000000000001" width="120" height="60" as="geometry"/>
                </mxCell>
                <mxCell id="PYFcoCn7AMZcuaxODCYF-29" value="WORK&#10;PACKAGE 2" style="whiteSpace=wrap;rounded=1;fillColor=#999999;strokeColor=none;shadow=1;fontColor=#FFFFFF;fontStyle=0" parent="PYFcoCn7AMZcuaxODCYF-1" vertex="1">
                    <mxGeometry x="689.9999999999995" y="590.0000000000001" width="120" height="60" as="geometry"/>
                </mxCell>
                <mxCell id="PYFcoCn7AMZcuaxODCYF-30" value="WORK&#10;PACKAGE 3" style="whiteSpace=wrap;rounded=1;fillColor=#999999;strokeColor=none;shadow=1;fontColor=#FFFFFF;fontStyle=0" parent="PYFcoCn7AMZcuaxODCYF-1" vertex="1">
                    <mxGeometry x="689.9999999999995" y="670.0000000000001" width="120" height="60" as="geometry"/>
                </mxCell>
                <mxCell id="PYFcoCn7AMZcuaxODCYF-31" value="WORK&#10;PACKAGE 4" style="whiteSpace=wrap;rounded=1;fillColor=#999999;strokeColor=none;shadow=1;fontColor=#FFFFFF;fontStyle=0" parent="PYFcoCn7AMZcuaxODCYF-1" vertex="1">
                    <mxGeometry x="689.9999999999997" y="750.0000000000001" width="120" height="60" as="geometry"/>
                </mxCell>
                <mxCell id="PYFcoCn7AMZcuaxODCYF-32" value="WORK&#10;PACKAGE 5" style="whiteSpace=wrap;rounded=1;fillColor=#999999;strokeColor=none;shadow=1;fontColor=#FFFFFF;fontStyle=0" parent="PYFcoCn7AMZcuaxODCYF-1" vertex="1">
                    <mxGeometry x="689.9999999999998" y="830.0000000000001" width="120" height="60" as="geometry"/>
                </mxCell>
                <mxCell id="PYFcoCn7AMZcuaxODCYF-33" value="" style="edgeStyle=elbowEdgeStyle;elbow=vertical;rounded=0;fontColor=#000000;endArrow=none;endFill=0;strokeWidth=8;strokeColor=#23445D;" parent="PYFcoCn7AMZcuaxODCYF-1" source="PYFcoCn7AMZcuaxODCYF-3" target="PYFcoCn7AMZcuaxODCYF-9" edge="1">
                    <mxGeometry width="100" height="100" relative="1" as="geometry">
                        <mxPoint x="70" y="400" as="sourcePoint"/>
                        <mxPoint x="170" y="300" as="targetPoint"/>
                    </mxGeometry>
                </mxCell>
                <mxCell id="PYFcoCn7AMZcuaxODCYF-34" value="" style="edgeStyle=elbowEdgeStyle;elbow=vertical;rounded=0;fontColor=#000000;endArrow=none;endFill=0;strokeWidth=8;strokeColor=#23445D;" parent="PYFcoCn7AMZcuaxODCYF-1" source="PYFcoCn7AMZcuaxODCYF-3" target="PYFcoCn7AMZcuaxODCYF-10" edge="1">
                    <mxGeometry width="100" height="100" relative="1" as="geometry">
                        <mxPoint x="410" y="400" as="sourcePoint"/>
                        <mxPoint x="510" y="300" as="targetPoint"/>
                    </mxGeometry>
                </mxCell>
                <mxCell id="PYFcoCn7AMZcuaxODCYF-35" value="" style="edgeStyle=elbowEdgeStyle;elbow=horizontal;rounded=0;fontColor=#000000;endArrow=none;endFill=0;strokeWidth=8;strokeColor=#23445D;" parent="PYFcoCn7AMZcuaxODCYF-1" source="PYFcoCn7AMZcuaxODCYF-9" target="PYFcoCn7AMZcuaxODCYF-11" edge="1">
                    <mxGeometry width="100" height="100" relative="1" as="geometry">
                        <mxPoint x="60" y="590" as="sourcePoint"/>
                        <mxPoint x="160" y="490" as="targetPoint"/>
                        <Array as="points">
                            <mxPoint x="100" y="490"/>
                        </Array>
                    </mxGeometry>
                </mxCell>
                <mxCell id="PYFcoCn7AMZcuaxODCYF-36" value="" style="edgeStyle=elbowEdgeStyle;elbow=horizontal;rounded=0;fontColor=#000000;endArrow=none;endFill=0;strokeWidth=8;strokeColor=#23445D;" parent="PYFcoCn7AMZcuaxODCYF-1" source="PYFcoCn7AMZcuaxODCYF-9" target="PYFcoCn7AMZcuaxODCYF-12" edge="1">
                    <mxGeometry width="100" height="100" relative="1" as="geometry">
                        <mxPoint x="130" y="450" as="sourcePoint"/>
                        <mxPoint x="130" y="550" as="targetPoint"/>
                        <Array as="points">
                            <mxPoint x="100" y="510"/>
                        </Array>
                    </mxGeometry>
                </mxCell>
                <mxCell id="PYFcoCn7AMZcuaxODCYF-37" value="" style="edgeStyle=elbowEdgeStyle;elbow=horizontal;rounded=0;fontColor=#000000;endArrow=none;endFill=0;strokeWidth=8;strokeColor=#23445D;" parent="PYFcoCn7AMZcuaxODCYF-1" source="PYFcoCn7AMZcuaxODCYF-9" target="PYFcoCn7AMZcuaxODCYF-15" edge="1">
                    <mxGeometry width="100" height="100" relative="1" as="geometry">
                        <mxPoint x="130" y="450" as="sourcePoint"/>
                        <mxPoint x="130" y="550" as="targetPoint"/>
                        <Array as="points">
                            <mxPoint x="100" y="650"/>
                        </Array>
                    </mxGeometry>
                </mxCell>
                <mxCell id="PYFcoCn7AMZcuaxODCYF-38" value="" style="edgeStyle=elbowEdgeStyle;elbow=horizontal;rounded=0;fontColor=#000000;endArrow=none;endFill=0;strokeWidth=8;strokeColor=#23445D;" parent="PYFcoCn7AMZcuaxODCYF-1" source="PYFcoCn7AMZcuaxODCYF-9" target="PYFcoCn7AMZcuaxODCYF-14" edge="1">
                    <mxGeometry width="100" height="100" relative="1" as="geometry">
                        <mxPoint x="150" y="470" as="sourcePoint"/>
                        <mxPoint x="150" y="570" as="targetPoint"/>
                        <Array as="points">
                            <mxPoint x="100" y="520"/>
                        </Array>
                    </mxGeometry>
                </mxCell>
                <mxCell id="PYFcoCn7AMZcuaxODCYF-39" value="" style="edgeStyle=elbowEdgeStyle;elbow=horizontal;rounded=0;fontColor=#000000;endArrow=none;endFill=0;strokeWidth=8;strokeColor=#23445D;" parent="PYFcoCn7AMZcuaxODCYF-1" source="PYFcoCn7AMZcuaxODCYF-9" target="PYFcoCn7AMZcuaxODCYF-13" edge="1">
                    <mxGeometry width="100" height="100" relative="1" as="geometry">
                        <mxPoint x="160" y="480" as="sourcePoint"/>
                        <mxPoint x="160" y="580" as="targetPoint"/>
                        <Array as="points">
                            <mxPoint x="100" y="540"/>
                        </Array>
                    </mxGeometry>
                </mxCell>
                <mxCell id="PYFcoCn7AMZcuaxODCYF-40" value="" style="edgeStyle=elbowEdgeStyle;elbow=horizontal;rounded=0;fontColor=#000000;endArrow=none;endFill=0;strokeWidth=8;strokeColor=#23445D;" parent="PYFcoCn7AMZcuaxODCYF-1" target="PYFcoCn7AMZcuaxODCYF-16" edge="1">
                    <mxGeometry width="100" height="100" relative="1" as="geometry">
                        <mxPoint x="310" y="440.0000000000004" as="sourcePoint"/>
                        <mxPoint x="310" y="540.0000000000005" as="targetPoint"/>
                        <Array as="points">
                            <mxPoint x="300" y="490"/>
                        </Array>
                    </mxGeometry>
                </mxCell>
                <mxCell id="PYFcoCn7AMZcuaxODCYF-41" value="" style="edgeStyle=elbowEdgeStyle;elbow=horizontal;rounded=0;fontColor=#000000;endArrow=none;endFill=0;strokeWidth=8;strokeColor=#23445D;" parent="PYFcoCn7AMZcuaxODCYF-1" source="PYFcoCn7AMZcuaxODCYF-10" target="PYFcoCn7AMZcuaxODCYF-17" edge="1">
                    <mxGeometry width="100" height="100" relative="1" as="geometry">
                        <mxPoint x="310" y="440.0000000000004" as="sourcePoint"/>
                        <mxPoint x="310" y="620.0000000000005" as="targetPoint"/>
                        <Array as="points">
                            <mxPoint x="300" y="530"/>
                        </Array>
                    </mxGeometry>
                </mxCell>
                <mxCell id="PYFcoCn7AMZcuaxODCYF-42" value="" style="edgeStyle=elbowEdgeStyle;elbow=horizontal;rounded=0;fontColor=#000000;endArrow=none;endFill=0;strokeWidth=8;strokeColor=#23445D;" parent="PYFcoCn7AMZcuaxODCYF-1" source="PYFcoCn7AMZcuaxODCYF-10" target="PYFcoCn7AMZcuaxODCYF-20" edge="1">
                    <mxGeometry width="100" height="100" relative="1" as="geometry">
                        <mxPoint x="310" y="440.0000000000004" as="sourcePoint"/>
                        <mxPoint x="310.00000000000045" y="860.0000000000003" as="targetPoint"/>
                        <Array as="points">
                            <mxPoint x="300" y="650"/>
                        </Array>
                    </mxGeometry>
                </mxCell>
                <mxCell id="PYFcoCn7AMZcuaxODCYF-43" value="" style="edgeStyle=elbowEdgeStyle;elbow=horizontal;rounded=0;fontColor=#000000;endArrow=none;endFill=0;strokeWidth=8;strokeColor=#23445D;" parent="PYFcoCn7AMZcuaxODCYF-1" source="PYFcoCn7AMZcuaxODCYF-10" target="PYFcoCn7AMZcuaxODCYF-19" edge="1">
                    <mxGeometry width="100" height="100" relative="1" as="geometry">
                        <mxPoint x="310" y="440.0000000000004" as="sourcePoint"/>
                        <mxPoint x="310.0000000000002" y="780.0000000000003" as="targetPoint"/>
                        <Array as="points">
                            <mxPoint x="300" y="610"/>
                        </Array>
                    </mxGeometry>
                </mxCell>
                <mxCell id="PYFcoCn7AMZcuaxODCYF-44" value="" style="edgeStyle=elbowEdgeStyle;elbow=horizontal;rounded=0;fontColor=#000000;endArrow=none;endFill=0;strokeWidth=8;strokeColor=#23445D;" parent="PYFcoCn7AMZcuaxODCYF-1" source="PYFcoCn7AMZcuaxODCYF-10" target="PYFcoCn7AMZcuaxODCYF-18" edge="1">
                    <mxGeometry width="100" height="100" relative="1" as="geometry">
                        <mxPoint x="310" y="440.0000000000004" as="sourcePoint"/>
                        <mxPoint x="310" y="700.0000000000003" as="targetPoint"/>
                        <Array as="points">
                            <mxPoint x="300" y="570"/>
                        </Array>
                    </mxGeometry>
                </mxCell>
                <mxCell id="PYFcoCn7AMZcuaxODCYF-45" value="" style="edgeStyle=elbowEdgeStyle;elbow=vertical;rounded=0;fontColor=#000000;endArrow=none;endFill=0;strokeWidth=8;strokeColor=#23445D;" parent="PYFcoCn7AMZcuaxODCYF-1" source="PYFcoCn7AMZcuaxODCYF-4" target="PYFcoCn7AMZcuaxODCYF-21" edge="1">
                    <mxGeometry width="100" height="100" relative="1" as="geometry">
                        <mxPoint x="290" y="349.9999999999998" as="sourcePoint"/>
                        <mxPoint x="190" y="420" as="targetPoint"/>
                    </mxGeometry>
                </mxCell>
                <mxCell id="PYFcoCn7AMZcuaxODCYF-46" value="" style="edgeStyle=elbowEdgeStyle;elbow=vertical;rounded=0;fontColor=#000000;endArrow=none;endFill=0;strokeWidth=8;strokeColor=#23445D;" parent="PYFcoCn7AMZcuaxODCYF-1" source="PYFcoCn7AMZcuaxODCYF-4" target="PYFcoCn7AMZcuaxODCYF-22" edge="1">
                    <mxGeometry width="100" height="100" relative="1" as="geometry">
                        <mxPoint x="290" y="349.9999999999998" as="sourcePoint"/>
                        <mxPoint x="390" y="420" as="targetPoint"/>
                    </mxGeometry>
                </mxCell>
                <mxCell id="PYFcoCn7AMZcuaxODCYF-47" value="" style="edgeStyle=elbowEdgeStyle;elbow=horizontal;rounded=0;fontColor=#000000;endArrow=none;endFill=0;strokeWidth=8;strokeColor=#23445D;" parent="PYFcoCn7AMZcuaxODCYF-1" source="PYFcoCn7AMZcuaxODCYF-21" target="PYFcoCn7AMZcuaxODCYF-23" edge="1">
                    <mxGeometry width="100" height="100" relative="1" as="geometry">
                        <mxPoint x="470" y="440.00000000000045" as="sourcePoint"/>
                        <mxPoint x="479.99999999999955" y="540" as="targetPoint"/>
                        <Array as="points">
                            <mxPoint x="470" y="490"/>
                        </Array>
                    </mxGeometry>
                </mxCell>
                <mxCell id="PYFcoCn7AMZcuaxODCYF-48" value="" style="edgeStyle=elbowEdgeStyle;elbow=horizontal;rounded=0;fontColor=#000000;endArrow=none;endFill=0;strokeWidth=8;strokeColor=#23445D;" parent="PYFcoCn7AMZcuaxODCYF-1" source="PYFcoCn7AMZcuaxODCYF-21" target="PYFcoCn7AMZcuaxODCYF-24" edge="1">
                    <mxGeometry width="100" height="100" relative="1" as="geometry">
                        <mxPoint x="480" y="440" as="sourcePoint"/>
                        <mxPoint x="479.9999999999998" y="620" as="targetPoint"/>
                        <Array as="points">
                            <mxPoint x="470" y="530"/>
                        </Array>
                    </mxGeometry>
                </mxCell>
                <mxCell id="PYFcoCn7AMZcuaxODCYF-49" value="" style="edgeStyle=elbowEdgeStyle;elbow=horizontal;rounded=0;fontColor=#000000;endArrow=none;endFill=0;strokeWidth=8;strokeColor=#23445D;" parent="PYFcoCn7AMZcuaxODCYF-1" source="PYFcoCn7AMZcuaxODCYF-21" target="PYFcoCn7AMZcuaxODCYF-27" edge="1">
                    <mxGeometry width="100" height="100" relative="1" as="geometry">
                        <mxPoint x="480" y="440" as="sourcePoint"/>
                        <mxPoint x="480" y="860" as="targetPoint"/>
                        <Array as="points">
                            <mxPoint x="470" y="660"/>
                        </Array>
                    </mxGeometry>
                </mxCell>
                <mxCell id="PYFcoCn7AMZcuaxODCYF-50" value="" style="edgeStyle=elbowEdgeStyle;elbow=horizontal;rounded=0;fontColor=#000000;endArrow=none;endFill=0;strokeWidth=8;strokeColor=#23445D;" parent="PYFcoCn7AMZcuaxODCYF-1" source="PYFcoCn7AMZcuaxODCYF-21" target="PYFcoCn7AMZcuaxODCYF-26" edge="1">
                    <mxGeometry width="100" height="100" relative="1" as="geometry">
                        <mxPoint x="480" y="440" as="sourcePoint"/>
                        <mxPoint x="480" y="780" as="targetPoint"/>
                        <Array as="points">
                            <mxPoint x="470" y="610"/>
                        </Array>
                    </mxGeometry>
                </mxCell>
                <mxCell id="PYFcoCn7AMZcuaxODCYF-51" value="" style="edgeStyle=elbowEdgeStyle;elbow=horizontal;rounded=0;fontColor=#000000;endArrow=none;endFill=0;strokeWidth=8;strokeColor=#23445D;" parent="PYFcoCn7AMZcuaxODCYF-1" source="PYFcoCn7AMZcuaxODCYF-21" target="PYFcoCn7AMZcuaxODCYF-25" edge="1">
                    <mxGeometry width="100" height="100" relative="1" as="geometry">
                        <mxPoint x="480" y="440" as="sourcePoint"/>
                        <mxPoint x="479.9999999999998" y="700" as="targetPoint"/>
                        <Array as="points">
                            <mxPoint x="470" y="580"/>
                        </Array>
                    </mxGeometry>
                </mxCell>
                <mxCell id="PYFcoCn7AMZcuaxODCYF-52" value="" style="edgeStyle=elbowEdgeStyle;elbow=horizontal;rounded=0;fontColor=#000000;endArrow=none;endFill=0;strokeWidth=8;strokeColor=#23445D;" parent="PYFcoCn7AMZcuaxODCYF-1" source="PYFcoCn7AMZcuaxODCYF-22" target="PYFcoCn7AMZcuaxODCYF-28" edge="1">
                    <mxGeometry width="100" height="100" relative="1" as="geometry">
                        <mxPoint x="660" y="440.00000000000045" as="sourcePoint"/>
                        <mxPoint x="669.9999999999995" y="540" as="targetPoint"/>
                        <Array as="points">
                            <mxPoint x="670" y="490"/>
                        </Array>
                    </mxGeometry>
                </mxCell>
                <mxCell id="PYFcoCn7AMZcuaxODCYF-53" value="" style="edgeStyle=elbowEdgeStyle;elbow=horizontal;rounded=0;fontColor=#000000;endArrow=none;endFill=0;strokeWidth=8;strokeColor=#23445D;" parent="PYFcoCn7AMZcuaxODCYF-1" source="PYFcoCn7AMZcuaxODCYF-22" target="PYFcoCn7AMZcuaxODCYF-29" edge="1">
                    <mxGeometry width="100" height="100" relative="1" as="geometry">
                        <mxPoint x="670" y="440" as="sourcePoint"/>
                        <mxPoint x="669.9999999999998" y="620" as="targetPoint"/>
                        <Array as="points">
                            <mxPoint x="670" y="530"/>
                        </Array>
                    </mxGeometry>
                </mxCell>
                <mxCell id="PYFcoCn7AMZcuaxODCYF-54" value="" style="edgeStyle=elbowEdgeStyle;elbow=horizontal;rounded=0;fontColor=#000000;endArrow=none;endFill=0;strokeWidth=8;strokeColor=#23445D;" parent="PYFcoCn7AMZcuaxODCYF-1" source="PYFcoCn7AMZcuaxODCYF-22" target="PYFcoCn7AMZcuaxODCYF-32" edge="1">
                    <mxGeometry width="100" height="100" relative="1" as="geometry">
                        <mxPoint x="670" y="440" as="sourcePoint"/>
                        <mxPoint x="670" y="860" as="targetPoint"/>
                        <Array as="points">
                            <mxPoint x="670" y="650"/>
                        </Array>
                    </mxGeometry>
                </mxCell>
                <mxCell id="PYFcoCn7AMZcuaxODCYF-55" value="" style="edgeStyle=elbowEdgeStyle;elbow=horizontal;rounded=0;fontColor=#000000;endArrow=none;endFill=0;strokeWidth=8;strokeColor=#23445D;" parent="PYFcoCn7AMZcuaxODCYF-1" source="PYFcoCn7AMZcuaxODCYF-22" target="PYFcoCn7AMZcuaxODCYF-31" edge="1">
                    <mxGeometry width="100" height="100" relative="1" as="geometry">
                        <mxPoint x="670" y="440" as="sourcePoint"/>
                        <mxPoint x="670" y="780" as="targetPoint"/>
                        <Array as="points">
                            <mxPoint x="670" y="610"/>
                        </Array>
                    </mxGeometry>
                </mxCell>
                <mxCell id="PYFcoCn7AMZcuaxODCYF-56" value="" style="edgeStyle=elbowEdgeStyle;elbow=horizontal;rounded=0;fontColor=#000000;endArrow=none;endFill=0;strokeWidth=8;strokeColor=#23445D;" parent="PYFcoCn7AMZcuaxODCYF-1" source="PYFcoCn7AMZcuaxODCYF-22" target="PYFcoCn7AMZcuaxODCYF-30" edge="1">
                    <mxGeometry width="100" height="100" relative="1" as="geometry">
                        <mxPoint x="670" y="440" as="sourcePoint"/>
                        <mxPoint x="669.9999999999998" y="700" as="targetPoint"/>
                        <Array as="points">
                            <mxPoint x="670" y="580"/>
                        </Array>
                    </mxGeometry>
                </mxCell>
                <mxCell id="PYFcoCn7AMZcuaxODCYF-57" value="SUB-TASK 1" style="whiteSpace=wrap;rounded=1;fillColor=#12AAB5;strokeColor=none;shadow=1;fontColor=#FFFFFF;" parent="PYFcoCn7AMZcuaxODCYF-1" vertex="1">
                    <mxGeometry x="859.9999999999998" y="410.0000000000001" width="120" height="60" as="geometry"/>
                </mxCell>
                <mxCell id="PYFcoCn7AMZcuaxODCYF-58" value="SUB-TASK 2" style="whiteSpace=wrap;rounded=1;fillColor=#12AAB5;strokeColor=none;shadow=1;fontColor=#FFFFFF;" parent="PYFcoCn7AMZcuaxODCYF-1" vertex="1">
                    <mxGeometry x="1059.9999999999998" y="410.0000000000001" width="120" height="60" as="geometry"/>
                </mxCell>
                <mxCell id="PYFcoCn7AMZcuaxODCYF-59" value="WORK&#10;PACKAGE 1" style="whiteSpace=wrap;rounded=1;fillColor=#999999;strokeColor=none;shadow=1;fontColor=#FFFFFF;fontStyle=0" parent="PYFcoCn7AMZcuaxODCYF-1" vertex="1">
                    <mxGeometry x="859.9999999999998" y="510.0000000000001" width="120" height="60" as="geometry"/>
                </mxCell>
                <mxCell id="PYFcoCn7AMZcuaxODCYF-60" value="WORK&#10;PACKAGE 2" style="whiteSpace=wrap;rounded=1;fillColor=#999999;strokeColor=none;shadow=1;fontColor=#FFFFFF;fontStyle=0" parent="PYFcoCn7AMZcuaxODCYF-1" vertex="1">
                    <mxGeometry x="859.9999999999999" y="590.0000000000001" width="120" height="60" as="geometry"/>
                </mxCell>
                <mxCell id="PYFcoCn7AMZcuaxODCYF-61" value="WORK&#10;PACKAGE 3" style="whiteSpace=wrap;rounded=1;fillColor=#999999;strokeColor=none;shadow=1;fontColor=#FFFFFF;fontStyle=0" parent="PYFcoCn7AMZcuaxODCYF-1" vertex="1">
                    <mxGeometry x="859.9999999999998" y="670.0000000000001" width="120" height="60" as="geometry"/>
                </mxCell>
                <mxCell id="PYFcoCn7AMZcuaxODCYF-62" value="WORK&#10;PACKAGE 4" style="whiteSpace=wrap;rounded=1;fillColor=#999999;strokeColor=none;shadow=1;fontColor=#FFFFFF;fontStyle=0" parent="PYFcoCn7AMZcuaxODCYF-1" vertex="1">
                    <mxGeometry x="860" y="750.0000000000001" width="120" height="60" as="geometry"/>
                </mxCell>
                <mxCell id="PYFcoCn7AMZcuaxODCYF-63" value="WORK&#10;PACKAGE 5" style="whiteSpace=wrap;rounded=1;fillColor=#999999;strokeColor=none;shadow=1;fontColor=#FFFFFF;fontStyle=0" parent="PYFcoCn7AMZcuaxODCYF-1" vertex="1">
                    <mxGeometry x="860.0000000000001" y="830.0000000000001" width="120" height="60" as="geometry"/>
                </mxCell>
                <mxCell id="PYFcoCn7AMZcuaxODCYF-64" value="WORK&#10;PACKAGE 1" style="whiteSpace=wrap;rounded=1;fillColor=#999999;strokeColor=none;shadow=1;fontColor=#FFFFFF;fontStyle=0" parent="PYFcoCn7AMZcuaxODCYF-1" vertex="1">
                    <mxGeometry x="1059.9999999999993" y="510.0000000000001" width="120" height="60" as="geometry"/>
                </mxCell>
                <mxCell id="PYFcoCn7AMZcuaxODCYF-65" value="WORK&#10;PACKAGE 2" style="whiteSpace=wrap;rounded=1;fillColor=#999999;strokeColor=none;shadow=1;fontColor=#FFFFFF;fontStyle=0" parent="PYFcoCn7AMZcuaxODCYF-1" vertex="1">
                    <mxGeometry x="1059.9999999999995" y="590.0000000000001" width="120" height="60" as="geometry"/>
                </mxCell>
                <mxCell id="PYFcoCn7AMZcuaxODCYF-66" value="WORK&#10;PACKAGE 3" style="whiteSpace=wrap;rounded=1;fillColor=#999999;strokeColor=none;shadow=1;fontColor=#FFFFFF;fontStyle=0" parent="PYFcoCn7AMZcuaxODCYF-1" vertex="1">
                    <mxGeometry x="1059.9999999999995" y="670.0000000000001" width="120" height="60" as="geometry"/>
                </mxCell>
                <mxCell id="PYFcoCn7AMZcuaxODCYF-67" value="WORK&#10;PACKAGE 4" style="whiteSpace=wrap;rounded=1;fillColor=#999999;strokeColor=none;shadow=1;fontColor=#FFFFFF;fontStyle=0" parent="PYFcoCn7AMZcuaxODCYF-1" vertex="1">
                    <mxGeometry x="1059.9999999999995" y="750.0000000000001" width="120" height="60" as="geometry"/>
                </mxCell>
                <mxCell id="PYFcoCn7AMZcuaxODCYF-68" value="WORK&#10;PACKAGE 5" style="whiteSpace=wrap;rounded=1;fillColor=#999999;strokeColor=none;shadow=1;fontColor=#FFFFFF;fontStyle=0" parent="PYFcoCn7AMZcuaxODCYF-1" vertex="1">
                    <mxGeometry x="1059.9999999999998" y="830.0000000000001" width="120" height="60" as="geometry"/>
                </mxCell>
                <mxCell id="PYFcoCn7AMZcuaxODCYF-69" value="" style="edgeStyle=elbowEdgeStyle;elbow=horizontal;rounded=0;fontColor=#000000;endArrow=none;endFill=0;strokeWidth=8;strokeColor=#23445D;" parent="PYFcoCn7AMZcuaxODCYF-1" source="PYFcoCn7AMZcuaxODCYF-57" target="PYFcoCn7AMZcuaxODCYF-59" edge="1">
                    <mxGeometry width="100" height="100" relative="1" as="geometry">
                        <mxPoint x="840" y="440.00000000000045" as="sourcePoint"/>
                        <mxPoint x="849.9999999999995" y="540" as="targetPoint"/>
                        <Array as="points">
                            <mxPoint x="840" y="490"/>
                        </Array>
                    </mxGeometry>
                </mxCell>
                <mxCell id="PYFcoCn7AMZcuaxODCYF-70" value="" style="edgeStyle=elbowEdgeStyle;elbow=horizontal;rounded=0;fontColor=#000000;endArrow=none;endFill=0;strokeWidth=8;strokeColor=#23445D;" parent="PYFcoCn7AMZcuaxODCYF-1" source="PYFcoCn7AMZcuaxODCYF-57" target="PYFcoCn7AMZcuaxODCYF-60" edge="1">
                    <mxGeometry width="100" height="100" relative="1" as="geometry">
                        <mxPoint x="850" y="440" as="sourcePoint"/>
                        <mxPoint x="849.9999999999998" y="620" as="targetPoint"/>
                        <Array as="points">
                            <mxPoint x="840" y="530"/>
                        </Array>
                    </mxGeometry>
                </mxCell>
                <mxCell id="PYFcoCn7AMZcuaxODCYF-71" value="" style="edgeStyle=elbowEdgeStyle;elbow=horizontal;rounded=0;fontColor=#000000;endArrow=none;endFill=0;strokeWidth=8;strokeColor=#23445D;" parent="PYFcoCn7AMZcuaxODCYF-1" source="PYFcoCn7AMZcuaxODCYF-57" target="PYFcoCn7AMZcuaxODCYF-63" edge="1">
                    <mxGeometry width="100" height="100" relative="1" as="geometry">
                        <mxPoint x="850" y="440" as="sourcePoint"/>
                        <mxPoint x="850" y="860" as="targetPoint"/>
                        <Array as="points">
                            <mxPoint x="840" y="660"/>
                        </Array>
                    </mxGeometry>
                </mxCell>
                <mxCell id="PYFcoCn7AMZcuaxODCYF-72" value="" style="edgeStyle=elbowEdgeStyle;elbow=horizontal;rounded=0;fontColor=#000000;endArrow=none;endFill=0;strokeWidth=8;strokeColor=#23445D;" parent="PYFcoCn7AMZcuaxODCYF-1" source="PYFcoCn7AMZcuaxODCYF-57" target="PYFcoCn7AMZcuaxODCYF-62" edge="1">
                    <mxGeometry width="100" height="100" relative="1" as="geometry">
                        <mxPoint x="850" y="440" as="sourcePoint"/>
                        <mxPoint x="850" y="780" as="targetPoint"/>
                        <Array as="points">
                            <mxPoint x="840" y="610"/>
                        </Array>
                    </mxGeometry>
                </mxCell>
                <mxCell id="PYFcoCn7AMZcuaxODCYF-73" value="" style="edgeStyle=elbowEdgeStyle;elbow=horizontal;rounded=0;fontColor=#000000;endArrow=none;endFill=0;strokeWidth=8;strokeColor=#23445D;" parent="PYFcoCn7AMZcuaxODCYF-1" source="PYFcoCn7AMZcuaxODCYF-57" target="PYFcoCn7AMZcuaxODCYF-61" edge="1">
                    <mxGeometry width="100" height="100" relative="1" as="geometry">
                        <mxPoint x="850" y="440" as="sourcePoint"/>
                        <mxPoint x="849.9999999999998" y="700" as="targetPoint"/>
                        <Array as="points">
                            <mxPoint x="840" y="580"/>
                        </Array>
                    </mxGeometry>
                </mxCell>
                <mxCell id="PYFcoCn7AMZcuaxODCYF-74" value="" style="edgeStyle=elbowEdgeStyle;elbow=horizontal;rounded=0;fontColor=#000000;endArrow=none;endFill=0;strokeWidth=8;strokeColor=#23445D;" parent="PYFcoCn7AMZcuaxODCYF-1" source="PYFcoCn7AMZcuaxODCYF-58" target="PYFcoCn7AMZcuaxODCYF-64" edge="1">
                    <mxGeometry width="100" height="100" relative="1" as="geometry">
                        <mxPoint x="1030" y="440.00000000000045" as="sourcePoint"/>
                        <mxPoint x="1039.9999999999995" y="540" as="targetPoint"/>
                        <Array as="points">
                            <mxPoint x="1040" y="490"/>
                        </Array>
                    </mxGeometry>
                </mxCell>
                <mxCell id="PYFcoCn7AMZcuaxODCYF-75" value="" style="edgeStyle=elbowEdgeStyle;elbow=horizontal;rounded=0;fontColor=#000000;endArrow=none;endFill=0;strokeWidth=8;strokeColor=#23445D;" parent="PYFcoCn7AMZcuaxODCYF-1" source="PYFcoCn7AMZcuaxODCYF-58" target="PYFcoCn7AMZcuaxODCYF-65" edge="1">
                    <mxGeometry width="100" height="100" relative="1" as="geometry">
                        <mxPoint x="1040" y="440" as="sourcePoint"/>
                        <mxPoint x="1039.9999999999998" y="620" as="targetPoint"/>
                        <Array as="points">
                            <mxPoint x="1040" y="530"/>
                        </Array>
                    </mxGeometry>
                </mxCell>
                <mxCell id="PYFcoCn7AMZcuaxODCYF-76" value="" style="edgeStyle=elbowEdgeStyle;elbow=horizontal;rounded=0;fontColor=#000000;endArrow=none;endFill=0;strokeWidth=8;strokeColor=#23445D;" parent="PYFcoCn7AMZcuaxODCYF-1" source="PYFcoCn7AMZcuaxODCYF-58" target="PYFcoCn7AMZcuaxODCYF-68" edge="1">
                    <mxGeometry width="100" height="100" relative="1" as="geometry">
                        <mxPoint x="1040" y="440" as="sourcePoint"/>
                        <mxPoint x="1040" y="860" as="targetPoint"/>
                        <Array as="points">
                            <mxPoint x="1040" y="650"/>
                        </Array>
                    </mxGeometry>
                </mxCell>
                <mxCell id="PYFcoCn7AMZcuaxODCYF-77" value="" style="edgeStyle=elbowEdgeStyle;elbow=horizontal;rounded=0;fontColor=#000000;endArrow=none;endFill=0;strokeWidth=8;strokeColor=#23445D;" parent="PYFcoCn7AMZcuaxODCYF-1" source="PYFcoCn7AMZcuaxODCYF-58" target="PYFcoCn7AMZcuaxODCYF-67" edge="1">
                    <mxGeometry width="100" height="100" relative="1" as="geometry">
                        <mxPoint x="1040" y="440" as="sourcePoint"/>
                        <mxPoint x="1040" y="780" as="targetPoint"/>
                        <Array as="points">
                            <mxPoint x="1040" y="610"/>
                        </Array>
                    </mxGeometry>
                </mxCell>
                <mxCell id="PYFcoCn7AMZcuaxODCYF-78" value="" style="edgeStyle=elbowEdgeStyle;elbow=horizontal;rounded=0;fontColor=#000000;endArrow=none;endFill=0;strokeWidth=8;strokeColor=#23445D;" parent="PYFcoCn7AMZcuaxODCYF-1" source="PYFcoCn7AMZcuaxODCYF-58" target="PYFcoCn7AMZcuaxODCYF-66" edge="1">
                    <mxGeometry width="100" height="100" relative="1" as="geometry">
                        <mxPoint x="1040" y="440" as="sourcePoint"/>
                        <mxPoint x="1039.9999999999998" y="700" as="targetPoint"/>
                        <Array as="points">
                            <mxPoint x="1040" y="580"/>
                        </Array>
                    </mxGeometry>
                </mxCell>
                <mxCell id="PYFcoCn7AMZcuaxODCYF-79" value="SUB-TASK 1" style="whiteSpace=wrap;rounded=1;fillColor=#12AAB5;strokeColor=none;shadow=1;fontColor=#FFFFFF;" parent="PYFcoCn7AMZcuaxODCYF-1" vertex="1">
                    <mxGeometry x="1229.9999999999998" y="410.0000000000002" width="120" height="60" as="geometry"/>
                </mxCell>
                <mxCell id="PYFcoCn7AMZcuaxODCYF-80" value="SUB-TASK 2" style="whiteSpace=wrap;rounded=1;fillColor=#12AAB5;strokeColor=none;shadow=1;fontColor=#FFFFFF;" parent="PYFcoCn7AMZcuaxODCYF-1" vertex="1">
                    <mxGeometry x="1429.9999999999998" y="410.0000000000002" width="120" height="60" as="geometry"/>
                </mxCell>
                <mxCell id="PYFcoCn7AMZcuaxODCYF-81" value="WORK&#10;PACKAGE 1" style="whiteSpace=wrap;rounded=1;fillColor=#999999;strokeColor=none;shadow=1;fontColor=#FFFFFF;fontStyle=0" parent="PYFcoCn7AMZcuaxODCYF-1" vertex="1">
                    <mxGeometry x="1229.9999999999998" y="510.0000000000002" width="120" height="60" as="geometry"/>
                </mxCell>
                <mxCell id="PYFcoCn7AMZcuaxODCYF-82" value="WORK&#10;PACKAGE 2" style="whiteSpace=wrap;rounded=1;fillColor=#999999;strokeColor=none;shadow=1;fontColor=#FFFFFF;fontStyle=0" parent="PYFcoCn7AMZcuaxODCYF-1" vertex="1">
                    <mxGeometry x="1230" y="590.0000000000002" width="120" height="60" as="geometry"/>
                </mxCell>
                <mxCell id="PYFcoCn7AMZcuaxODCYF-83" value="WORK&#10;PACKAGE 3" style="whiteSpace=wrap;rounded=1;fillColor=#999999;strokeColor=none;shadow=1;fontColor=#FFFFFF;fontStyle=0" parent="PYFcoCn7AMZcuaxODCYF-1" vertex="1">
                    <mxGeometry x="1229.9999999999998" y="670.0000000000002" width="120" height="60" as="geometry"/>
                </mxCell>
                <mxCell id="PYFcoCn7AMZcuaxODCYF-84" value="WORK&#10;PACKAGE 4" style="whiteSpace=wrap;rounded=1;fillColor=#999999;strokeColor=none;shadow=1;fontColor=#FFFFFF;fontStyle=0" parent="PYFcoCn7AMZcuaxODCYF-1" vertex="1">
                    <mxGeometry x="1230" y="750.0000000000002" width="120" height="60" as="geometry"/>
                </mxCell>
                <mxCell id="PYFcoCn7AMZcuaxODCYF-85" value="WORK&#10;PACKAGE 5" style="whiteSpace=wrap;rounded=1;fillColor=#999999;strokeColor=none;shadow=1;fontColor=#FFFFFF;fontStyle=0" parent="PYFcoCn7AMZcuaxODCYF-1" vertex="1">
                    <mxGeometry x="1230" y="830.0000000000002" width="120" height="60" as="geometry"/>
                </mxCell>
                <mxCell id="PYFcoCn7AMZcuaxODCYF-86" value="WORK&#10;PACKAGE 1" style="whiteSpace=wrap;rounded=1;fillColor=#999999;strokeColor=none;shadow=1;fontColor=#FFFFFF;fontStyle=0" parent="PYFcoCn7AMZcuaxODCYF-1" vertex="1">
                    <mxGeometry x="1429.9999999999993" y="510.0000000000002" width="120" height="60" as="geometry"/>
                </mxCell>
                <mxCell id="PYFcoCn7AMZcuaxODCYF-87" value="WORK&#10;PACKAGE 2" style="whiteSpace=wrap;rounded=1;fillColor=#999999;strokeColor=none;shadow=1;fontColor=#FFFFFF;fontStyle=0" parent="PYFcoCn7AMZcuaxODCYF-1" vertex="1">
                    <mxGeometry x="1429.9999999999995" y="590.0000000000002" width="120" height="60" as="geometry"/>
                </mxCell>
                <mxCell id="PYFcoCn7AMZcuaxODCYF-88" value="WORK&#10;PACKAGE 3" style="whiteSpace=wrap;rounded=1;fillColor=#999999;strokeColor=none;shadow=1;fontColor=#FFFFFF;fontStyle=0" parent="PYFcoCn7AMZcuaxODCYF-1" vertex="1">
                    <mxGeometry x="1429.9999999999995" y="670.0000000000002" width="120" height="60" as="geometry"/>
                </mxCell>
                <mxCell id="PYFcoCn7AMZcuaxODCYF-89" value="WORK&#10;PACKAGE 4" style="whiteSpace=wrap;rounded=1;fillColor=#999999;strokeColor=none;shadow=1;fontColor=#FFFFFF;fontStyle=0" parent="PYFcoCn7AMZcuaxODCYF-1" vertex="1">
                    <mxGeometry x="1429.9999999999995" y="750.0000000000002" width="120" height="60" as="geometry"/>
                </mxCell>
                <mxCell id="PYFcoCn7AMZcuaxODCYF-90" value="WORK&#10;PACKAGE 5" style="whiteSpace=wrap;rounded=1;fillColor=#999999;strokeColor=none;shadow=1;fontColor=#FFFFFF;fontStyle=0" parent="PYFcoCn7AMZcuaxODCYF-1" vertex="1">
                    <mxGeometry x="1429.9999999999998" y="830.0000000000002" width="120" height="60" as="geometry"/>
                </mxCell>
                <mxCell id="PYFcoCn7AMZcuaxODCYF-91" value="" style="edgeStyle=elbowEdgeStyle;elbow=horizontal;rounded=0;fontColor=#000000;endArrow=none;endFill=0;strokeWidth=8;strokeColor=#23445D;" parent="PYFcoCn7AMZcuaxODCYF-1" source="PYFcoCn7AMZcuaxODCYF-79" target="PYFcoCn7AMZcuaxODCYF-81" edge="1">
                    <mxGeometry width="100" height="100" relative="1" as="geometry">
                        <mxPoint x="1210" y="440.00000000000057" as="sourcePoint"/>
                        <mxPoint x="1219.9999999999995" y="540.0000000000001" as="targetPoint"/>
                        <Array as="points">
                            <mxPoint x="1210" y="490.0000000000001"/>
                        </Array>
                    </mxGeometry>
                </mxCell>
                <mxCell id="PYFcoCn7AMZcuaxODCYF-92" value="" style="edgeStyle=elbowEdgeStyle;elbow=horizontal;rounded=0;fontColor=#000000;endArrow=none;endFill=0;strokeWidth=8;strokeColor=#23445D;" parent="PYFcoCn7AMZcuaxODCYF-1" source="PYFcoCn7AMZcuaxODCYF-79" target="PYFcoCn7AMZcuaxODCYF-82" edge="1">
                    <mxGeometry width="100" height="100" relative="1" as="geometry">
                        <mxPoint x="1220" y="440.0000000000001" as="sourcePoint"/>
                        <mxPoint x="1219.9999999999998" y="620.0000000000001" as="targetPoint"/>
                        <Array as="points">
                            <mxPoint x="1210" y="530.0000000000001"/>
                        </Array>
                    </mxGeometry>
                </mxCell>
                <mxCell id="PYFcoCn7AMZcuaxODCYF-93" value="" style="edgeStyle=elbowEdgeStyle;elbow=horizontal;rounded=0;fontColor=#000000;endArrow=none;endFill=0;strokeWidth=8;strokeColor=#23445D;" parent="PYFcoCn7AMZcuaxODCYF-1" source="PYFcoCn7AMZcuaxODCYF-79" target="PYFcoCn7AMZcuaxODCYF-85" edge="1">
                    <mxGeometry width="100" height="100" relative="1" as="geometry">
                        <mxPoint x="1220" y="440.0000000000001" as="sourcePoint"/>
                        <mxPoint x="1220" y="860.0000000000001" as="targetPoint"/>
                        <Array as="points">
                            <mxPoint x="1210" y="660.0000000000001"/>
                        </Array>
                    </mxGeometry>
                </mxCell>
                <mxCell id="PYFcoCn7AMZcuaxODCYF-94" value="" style="edgeStyle=elbowEdgeStyle;elbow=horizontal;rounded=0;fontColor=#000000;endArrow=none;endFill=0;strokeWidth=8;strokeColor=#23445D;" parent="PYFcoCn7AMZcuaxODCYF-1" source="PYFcoCn7AMZcuaxODCYF-79" target="PYFcoCn7AMZcuaxODCYF-84" edge="1">
                    <mxGeometry width="100" height="100" relative="1" as="geometry">
                        <mxPoint x="1220" y="440.0000000000001" as="sourcePoint"/>
                        <mxPoint x="1220" y="780.0000000000001" as="targetPoint"/>
                        <Array as="points">
                            <mxPoint x="1210" y="610.0000000000001"/>
                        </Array>
                    </mxGeometry>
                </mxCell>
                <mxCell id="PYFcoCn7AMZcuaxODCYF-95" value="" style="edgeStyle=elbowEdgeStyle;elbow=horizontal;rounded=0;fontColor=#000000;endArrow=none;endFill=0;strokeWidth=8;strokeColor=#23445D;" parent="PYFcoCn7AMZcuaxODCYF-1" source="PYFcoCn7AMZcuaxODCYF-79" target="PYFcoCn7AMZcuaxODCYF-83" edge="1">
                    <mxGeometry width="100" height="100" relative="1" as="geometry">
                        <mxPoint x="1220" y="440.0000000000001" as="sourcePoint"/>
                        <mxPoint x="1219.9999999999998" y="700.0000000000001" as="targetPoint"/>
                        <Array as="points">
                            <mxPoint x="1210" y="580.0000000000001"/>
                        </Array>
                    </mxGeometry>
                </mxCell>
                <mxCell id="PYFcoCn7AMZcuaxODCYF-96" value="" style="edgeStyle=elbowEdgeStyle;elbow=horizontal;rounded=0;fontColor=#000000;endArrow=none;endFill=0;strokeWidth=8;strokeColor=#23445D;" parent="PYFcoCn7AMZcuaxODCYF-1" source="PYFcoCn7AMZcuaxODCYF-80" target="PYFcoCn7AMZcuaxODCYF-86" edge="1">
                    <mxGeometry width="100" height="100" relative="1" as="geometry">
                        <mxPoint x="1400" y="440.00000000000057" as="sourcePoint"/>
                        <mxPoint x="1409.9999999999995" y="540.0000000000001" as="targetPoint"/>
                        <Array as="points">
                            <mxPoint x="1410" y="490.0000000000001"/>
                        </Array>
                    </mxGeometry>
                </mxCell>
                <mxCell id="PYFcoCn7AMZcuaxODCYF-97" value="" style="edgeStyle=elbowEdgeStyle;elbow=horizontal;rounded=0;fontColor=#000000;endArrow=none;endFill=0;strokeWidth=8;strokeColor=#23445D;" parent="PYFcoCn7AMZcuaxODCYF-1" source="PYFcoCn7AMZcuaxODCYF-80" target="PYFcoCn7AMZcuaxODCYF-87" edge="1">
                    <mxGeometry width="100" height="100" relative="1" as="geometry">
                        <mxPoint x="1410" y="440.0000000000001" as="sourcePoint"/>
                        <mxPoint x="1409.9999999999998" y="620.0000000000001" as="targetPoint"/>
                        <Array as="points">
                            <mxPoint x="1410" y="530.0000000000001"/>
                        </Array>
                    </mxGeometry>
                </mxCell>
                <mxCell id="PYFcoCn7AMZcuaxODCYF-98" value="" style="edgeStyle=elbowEdgeStyle;elbow=horizontal;rounded=0;fontColor=#000000;endArrow=none;endFill=0;strokeWidth=8;strokeColor=#23445D;" parent="PYFcoCn7AMZcuaxODCYF-1" source="PYFcoCn7AMZcuaxODCYF-80" target="PYFcoCn7AMZcuaxODCYF-90" edge="1">
                    <mxGeometry width="100" height="100" relative="1" as="geometry">
                        <mxPoint x="1410" y="440.0000000000001" as="sourcePoint"/>
                        <mxPoint x="1410" y="860.0000000000001" as="targetPoint"/>
                        <Array as="points">
                            <mxPoint x="1410" y="650.0000000000001"/>
                        </Array>
                    </mxGeometry>
                </mxCell>
                <mxCell id="PYFcoCn7AMZcuaxODCYF-99" value="" style="edgeStyle=elbowEdgeStyle;elbow=horizontal;rounded=0;fontColor=#000000;endArrow=none;endFill=0;strokeWidth=8;strokeColor=#23445D;" parent="PYFcoCn7AMZcuaxODCYF-1" source="PYFcoCn7AMZcuaxODCYF-80" target="PYFcoCn7AMZcuaxODCYF-89" edge="1">
                    <mxGeometry width="100" height="100" relative="1" as="geometry">
                        <mxPoint x="1410" y="440.0000000000001" as="sourcePoint"/>
                        <mxPoint x="1410" y="780.0000000000001" as="targetPoint"/>
                        <Array as="points">
                            <mxPoint x="1410" y="610.0000000000001"/>
                        </Array>
                    </mxGeometry>
                </mxCell>
                <mxCell id="PYFcoCn7AMZcuaxODCYF-100" value="" style="edgeStyle=elbowEdgeStyle;elbow=horizontal;rounded=0;fontColor=#000000;endArrow=none;endFill=0;strokeWidth=8;strokeColor=#23445D;" parent="PYFcoCn7AMZcuaxODCYF-1" source="PYFcoCn7AMZcuaxODCYF-80" target="PYFcoCn7AMZcuaxODCYF-88" edge="1">
                    <mxGeometry width="100" height="100" relative="1" as="geometry">
                        <mxPoint x="1410" y="440.0000000000001" as="sourcePoint"/>
                        <mxPoint x="1409.9999999999998" y="700.0000000000001" as="targetPoint"/>
                        <Array as="points">
                            <mxPoint x="1410" y="580.0000000000001"/>
                        </Array>
                    </mxGeometry>
                </mxCell>
                <mxCell id="PYFcoCn7AMZcuaxODCYF-101" value="SUB-TASK 1" style="whiteSpace=wrap;rounded=1;fillColor=#12AAB5;strokeColor=none;shadow=1;fontColor=#FFFFFF;" parent="PYFcoCn7AMZcuaxODCYF-1" vertex="1">
                    <mxGeometry x="1599.9999999999998" y="409.9999999999999" width="120" height="60" as="geometry"/>
                </mxCell>
                <mxCell id="PYFcoCn7AMZcuaxODCYF-102" value="SUB-TASK 2" style="whiteSpace=wrap;rounded=1;fillColor=#12AAB5;strokeColor=none;shadow=1;fontColor=#FFFFFF;" parent="PYFcoCn7AMZcuaxODCYF-1" vertex="1">
                    <mxGeometry x="1799.9999999999998" y="409.9999999999999" width="120" height="60" as="geometry"/>
                </mxCell>
                <mxCell id="PYFcoCn7AMZcuaxODCYF-103" value="WORK&#10;PACKAGE 1" style="whiteSpace=wrap;rounded=1;fillColor=#999999;strokeColor=none;shadow=1;fontColor=#FFFFFF;fontStyle=0" parent="PYFcoCn7AMZcuaxODCYF-1" vertex="1">
                    <mxGeometry x="1599.9999999999998" y="509.9999999999999" width="120" height="60" as="geometry"/>
                </mxCell>
                <mxCell id="PYFcoCn7AMZcuaxODCYF-104" value="WORK&#10;PACKAGE 2" style="whiteSpace=wrap;rounded=1;fillColor=#999999;strokeColor=none;shadow=1;fontColor=#FFFFFF;fontStyle=0" parent="PYFcoCn7AMZcuaxODCYF-1" vertex="1">
                    <mxGeometry x="1600" y="589.9999999999999" width="120" height="60" as="geometry"/>
                </mxCell>
                <mxCell id="PYFcoCn7AMZcuaxODCYF-105" value="WORK&#10;PACKAGE 3" style="whiteSpace=wrap;rounded=1;fillColor=#999999;strokeColor=none;shadow=1;fontColor=#FFFFFF;fontStyle=0" parent="PYFcoCn7AMZcuaxODCYF-1" vertex="1">
                    <mxGeometry x="1599.9999999999998" y="669.9999999999999" width="120" height="60" as="geometry"/>
                </mxCell>
                <mxCell id="PYFcoCn7AMZcuaxODCYF-106" value="WORK&#10;PACKAGE 4" style="whiteSpace=wrap;rounded=1;fillColor=#999999;strokeColor=none;shadow=1;fontColor=#FFFFFF;fontStyle=0" parent="PYFcoCn7AMZcuaxODCYF-1" vertex="1">
                    <mxGeometry x="1600" y="749.9999999999999" width="120" height="60" as="geometry"/>
                </mxCell>
                <mxCell id="PYFcoCn7AMZcuaxODCYF-107" value="WORK&#10;PACKAGE 5" style="whiteSpace=wrap;rounded=1;fillColor=#999999;strokeColor=none;shadow=1;fontColor=#FFFFFF;fontStyle=0" parent="PYFcoCn7AMZcuaxODCYF-1" vertex="1">
                    <mxGeometry x="1600" y="829.9999999999999" width="120" height="60" as="geometry"/>
                </mxCell>
                <mxCell id="PYFcoCn7AMZcuaxODCYF-108" value="WORK&#10;PACKAGE 1" style="whiteSpace=wrap;rounded=1;fillColor=#999999;strokeColor=none;shadow=1;fontColor=#FFFFFF;fontStyle=0" parent="PYFcoCn7AMZcuaxODCYF-1" vertex="1">
                    <mxGeometry x="1799.9999999999993" y="509.9999999999999" width="120" height="60" as="geometry"/>
                </mxCell>
                <mxCell id="PYFcoCn7AMZcuaxODCYF-109" value="WORK&#10;PACKAGE 2" style="whiteSpace=wrap;rounded=1;fillColor=#999999;strokeColor=none;shadow=1;fontColor=#FFFFFF;fontStyle=0" parent="PYFcoCn7AMZcuaxODCYF-1" vertex="1">
                    <mxGeometry x="1799.9999999999995" y="589.9999999999999" width="120" height="60" as="geometry"/>
                </mxCell>
                <mxCell id="PYFcoCn7AMZcuaxODCYF-110" value="WORK&#10;PACKAGE 3" style="whiteSpace=wrap;rounded=1;fillColor=#999999;strokeColor=none;shadow=1;fontColor=#FFFFFF;fontStyle=0" parent="PYFcoCn7AMZcuaxODCYF-1" vertex="1">
                    <mxGeometry x="1799.9999999999995" y="669.9999999999999" width="120" height="60" as="geometry"/>
                </mxCell>
                <mxCell id="PYFcoCn7AMZcuaxODCYF-111" value="WORK&#10;PACKAGE 4" style="whiteSpace=wrap;rounded=1;fillColor=#999999;strokeColor=none;shadow=1;fontColor=#FFFFFF;fontStyle=0" parent="PYFcoCn7AMZcuaxODCYF-1" vertex="1">
                    <mxGeometry x="1799.9999999999995" y="749.9999999999999" width="120" height="60" as="geometry"/>
                </mxCell>
                <mxCell id="PYFcoCn7AMZcuaxODCYF-112" value="WORK&#10;PACKAGE 5" style="whiteSpace=wrap;rounded=1;fillColor=#999999;strokeColor=none;shadow=1;fontColor=#FFFFFF;fontStyle=0" parent="PYFcoCn7AMZcuaxODCYF-1" vertex="1">
                    <mxGeometry x="1799.9999999999998" y="829.9999999999999" width="120" height="60" as="geometry"/>
                </mxCell>
                <mxCell id="PYFcoCn7AMZcuaxODCYF-113" value="" style="edgeStyle=elbowEdgeStyle;elbow=horizontal;rounded=0;fontColor=#000000;endArrow=none;endFill=0;strokeWidth=8;strokeColor=#23445D;" parent="PYFcoCn7AMZcuaxODCYF-1" source="PYFcoCn7AMZcuaxODCYF-101" target="PYFcoCn7AMZcuaxODCYF-103" edge="1">
                    <mxGeometry width="100" height="100" relative="1" as="geometry">
                        <mxPoint x="1580" y="440.0000000000002" as="sourcePoint"/>
                        <mxPoint x="1589.9999999999995" y="539.9999999999998" as="targetPoint"/>
                        <Array as="points">
                            <mxPoint x="1580" y="489.9999999999998"/>
                        </Array>
                    </mxGeometry>
                </mxCell>
                <mxCell id="PYFcoCn7AMZcuaxODCYF-114" value="" style="edgeStyle=elbowEdgeStyle;elbow=horizontal;rounded=0;fontColor=#000000;endArrow=none;endFill=0;strokeWidth=8;strokeColor=#23445D;" parent="PYFcoCn7AMZcuaxODCYF-1" source="PYFcoCn7AMZcuaxODCYF-101" target="PYFcoCn7AMZcuaxODCYF-104" edge="1">
                    <mxGeometry width="100" height="100" relative="1" as="geometry">
                        <mxPoint x="1590" y="439.9999999999998" as="sourcePoint"/>
                        <mxPoint x="1589.9999999999998" y="619.9999999999998" as="targetPoint"/>
                        <Array as="points">
                            <mxPoint x="1580" y="529.9999999999998"/>
                        </Array>
                    </mxGeometry>
                </mxCell>
                <mxCell id="PYFcoCn7AMZcuaxODCYF-115" value="" style="edgeStyle=elbowEdgeStyle;elbow=horizontal;rounded=0;fontColor=#000000;endArrow=none;endFill=0;strokeWidth=8;strokeColor=#23445D;" parent="PYFcoCn7AMZcuaxODCYF-1" source="PYFcoCn7AMZcuaxODCYF-101" target="PYFcoCn7AMZcuaxODCYF-107" edge="1">
                    <mxGeometry width="100" height="100" relative="1" as="geometry">
                        <mxPoint x="1590" y="439.9999999999998" as="sourcePoint"/>
                        <mxPoint x="1590" y="859.9999999999998" as="targetPoint"/>
                        <Array as="points">
                            <mxPoint x="1580" y="659.9999999999998"/>
                        </Array>
                    </mxGeometry>
                </mxCell>
                <mxCell id="PYFcoCn7AMZcuaxODCYF-116" value="" style="edgeStyle=elbowEdgeStyle;elbow=horizontal;rounded=0;fontColor=#000000;endArrow=none;endFill=0;strokeWidth=8;strokeColor=#23445D;" parent="PYFcoCn7AMZcuaxODCYF-1" source="PYFcoCn7AMZcuaxODCYF-101" target="PYFcoCn7AMZcuaxODCYF-106" edge="1">
                    <mxGeometry width="100" height="100" relative="1" as="geometry">
                        <mxPoint x="1590" y="439.9999999999998" as="sourcePoint"/>
                        <mxPoint x="1590" y="779.9999999999998" as="targetPoint"/>
                        <Array as="points">
                            <mxPoint x="1580" y="609.9999999999998"/>
                        </Array>
                    </mxGeometry>
                </mxCell>
                <mxCell id="PYFcoCn7AMZcuaxODCYF-117" value="" style="edgeStyle=elbowEdgeStyle;elbow=horizontal;rounded=0;fontColor=#000000;endArrow=none;endFill=0;strokeWidth=8;strokeColor=#23445D;" parent="PYFcoCn7AMZcuaxODCYF-1" source="PYFcoCn7AMZcuaxODCYF-101" target="PYFcoCn7AMZcuaxODCYF-105" edge="1">
                    <mxGeometry width="100" height="100" relative="1" as="geometry">
                        <mxPoint x="1590" y="439.9999999999998" as="sourcePoint"/>
                        <mxPoint x="1589.9999999999998" y="699.9999999999998" as="targetPoint"/>
                        <Array as="points">
                            <mxPoint x="1580" y="579.9999999999998"/>
                        </Array>
                    </mxGeometry>
                </mxCell>
                <mxCell id="PYFcoCn7AMZcuaxODCYF-118" value="" style="edgeStyle=elbowEdgeStyle;elbow=horizontal;rounded=0;fontColor=#000000;endArrow=none;endFill=0;strokeWidth=8;strokeColor=#23445D;" parent="PYFcoCn7AMZcuaxODCYF-1" source="PYFcoCn7AMZcuaxODCYF-102" target="PYFcoCn7AMZcuaxODCYF-108" edge="1">
                    <mxGeometry width="100" height="100" relative="1" as="geometry">
                        <mxPoint x="1770" y="440.0000000000002" as="sourcePoint"/>
                        <mxPoint x="1779.9999999999995" y="539.9999999999998" as="targetPoint"/>
                        <Array as="points">
                            <mxPoint x="1780" y="489.9999999999998"/>
                        </Array>
                    </mxGeometry>
                </mxCell>
                <mxCell id="PYFcoCn7AMZcuaxODCYF-119" value="" style="edgeStyle=elbowEdgeStyle;elbow=horizontal;rounded=0;fontColor=#000000;endArrow=none;endFill=0;strokeWidth=8;strokeColor=#23445D;" parent="PYFcoCn7AMZcuaxODCYF-1" source="PYFcoCn7AMZcuaxODCYF-102" target="PYFcoCn7AMZcuaxODCYF-109" edge="1">
                    <mxGeometry width="100" height="100" relative="1" as="geometry">
                        <mxPoint x="1780" y="439.9999999999998" as="sourcePoint"/>
                        <mxPoint x="1779.9999999999998" y="619.9999999999998" as="targetPoint"/>
                        <Array as="points">
                            <mxPoint x="1780" y="529.9999999999998"/>
                        </Array>
                    </mxGeometry>
                </mxCell>
                <mxCell id="PYFcoCn7AMZcuaxODCYF-120" value="" style="edgeStyle=elbowEdgeStyle;elbow=horizontal;rounded=0;fontColor=#000000;endArrow=none;endFill=0;strokeWidth=8;strokeColor=#23445D;" parent="PYFcoCn7AMZcuaxODCYF-1" source="PYFcoCn7AMZcuaxODCYF-102" target="PYFcoCn7AMZcuaxODCYF-112" edge="1">
                    <mxGeometry width="100" height="100" relative="1" as="geometry">
                        <mxPoint x="1780" y="439.9999999999998" as="sourcePoint"/>
                        <mxPoint x="1780" y="859.9999999999998" as="targetPoint"/>
                        <Array as="points">
                            <mxPoint x="1780" y="649.9999999999998"/>
                        </Array>
                    </mxGeometry>
                </mxCell>
                <mxCell id="PYFcoCn7AMZcuaxODCYF-121" value="" style="edgeStyle=elbowEdgeStyle;elbow=horizontal;rounded=0;fontColor=#000000;endArrow=none;endFill=0;strokeWidth=8;strokeColor=#23445D;" parent="PYFcoCn7AMZcuaxODCYF-1" source="PYFcoCn7AMZcuaxODCYF-102" target="PYFcoCn7AMZcuaxODCYF-111" edge="1">
                    <mxGeometry width="100" height="100" relative="1" as="geometry">
                        <mxPoint x="1780" y="439.9999999999998" as="sourcePoint"/>
                        <mxPoint x="1780" y="779.9999999999998" as="targetPoint"/>
                        <Array as="points">
                            <mxPoint x="1780" y="609.9999999999998"/>
                        </Array>
                    </mxGeometry>
                </mxCell>
                <mxCell id="PYFcoCn7AMZcuaxODCYF-122" value="" style="edgeStyle=elbowEdgeStyle;elbow=horizontal;rounded=0;fontColor=#000000;endArrow=none;endFill=0;strokeWidth=8;strokeColor=#23445D;" parent="PYFcoCn7AMZcuaxODCYF-1" source="PYFcoCn7AMZcuaxODCYF-102" target="PYFcoCn7AMZcuaxODCYF-110" edge="1">
                    <mxGeometry width="100" height="100" relative="1" as="geometry">
                        <mxPoint x="1780" y="439.9999999999998" as="sourcePoint"/>
                        <mxPoint x="1779.9999999999998" y="699.9999999999998" as="targetPoint"/>
                        <Array as="points">
                            <mxPoint x="1780" y="579.9999999999998"/>
                        </Array>
                    </mxGeometry>
                </mxCell>
                <mxCell id="PYFcoCn7AMZcuaxODCYF-123" value="SUB-TASK 1" style="whiteSpace=wrap;rounded=1;fillColor=#12AAB5;strokeColor=none;shadow=1;fontColor=#FFFFFF;" parent="PYFcoCn7AMZcuaxODCYF-1" vertex="1">
                    <mxGeometry x="1969.9999999999998" y="409.9999999999997" width="120" height="60" as="geometry"/>
                </mxCell>
                <mxCell id="PYFcoCn7AMZcuaxODCYF-124" value="SUB-TASK 2" style="whiteSpace=wrap;rounded=1;fillColor=#12AAB5;strokeColor=none;shadow=1;fontColor=#FFFFFF;" parent="PYFcoCn7AMZcuaxODCYF-1" vertex="1">
                    <mxGeometry x="2170" y="409.9999999999997" width="120" height="60" as="geometry"/>
                </mxCell>
                <mxCell id="PYFcoCn7AMZcuaxODCYF-125" value="WORK&#10;PACKAGE 1" style="whiteSpace=wrap;rounded=1;fillColor=#999999;strokeColor=none;shadow=1;fontColor=#FFFFFF;fontStyle=0" parent="PYFcoCn7AMZcuaxODCYF-1" vertex="1">
                    <mxGeometry x="1969.9999999999998" y="509.9999999999998" width="120" height="60" as="geometry"/>
                </mxCell>
                <mxCell id="PYFcoCn7AMZcuaxODCYF-126" value="WORK&#10;PACKAGE 2" style="whiteSpace=wrap;rounded=1;fillColor=#999999;strokeColor=none;shadow=1;fontColor=#FFFFFF;fontStyle=0" parent="PYFcoCn7AMZcuaxODCYF-1" vertex="1">
                    <mxGeometry x="1970" y="589.9999999999998" width="120" height="60" as="geometry"/>
                </mxCell>
                <mxCell id="PYFcoCn7AMZcuaxODCYF-127" value="WORK&#10;PACKAGE 3" style="whiteSpace=wrap;rounded=1;fillColor=#999999;strokeColor=none;shadow=1;fontColor=#FFFFFF;fontStyle=0" parent="PYFcoCn7AMZcuaxODCYF-1" vertex="1">
                    <mxGeometry x="1969.9999999999998" y="669.9999999999997" width="120" height="60" as="geometry"/>
                </mxCell>
                <mxCell id="PYFcoCn7AMZcuaxODCYF-128" value="WORK&#10;PACKAGE 4" style="whiteSpace=wrap;rounded=1;fillColor=#999999;strokeColor=none;shadow=1;fontColor=#FFFFFF;fontStyle=0" parent="PYFcoCn7AMZcuaxODCYF-1" vertex="1">
                    <mxGeometry x="1970" y="749.9999999999997" width="120" height="60" as="geometry"/>
                </mxCell>
                <mxCell id="PYFcoCn7AMZcuaxODCYF-129" value="WORK&#10;PACKAGE 5" style="whiteSpace=wrap;rounded=1;fillColor=#999999;strokeColor=none;shadow=1;fontColor=#FFFFFF;fontStyle=0" parent="PYFcoCn7AMZcuaxODCYF-1" vertex="1">
                    <mxGeometry x="1970" y="829.9999999999997" width="120" height="60" as="geometry"/>
                </mxCell>
                <mxCell id="PYFcoCn7AMZcuaxODCYF-130" value="WORK&#10;PACKAGE 1" style="whiteSpace=wrap;rounded=1;fillColor=#999999;strokeColor=none;shadow=1;fontColor=#FFFFFF;fontStyle=0" parent="PYFcoCn7AMZcuaxODCYF-1" vertex="1">
                    <mxGeometry x="2169.999999999999" y="509.9999999999998" width="120" height="60" as="geometry"/>
                </mxCell>
                <mxCell id="PYFcoCn7AMZcuaxODCYF-131" value="WORK&#10;PACKAGE 2" style="whiteSpace=wrap;rounded=1;fillColor=#999999;strokeColor=none;shadow=1;fontColor=#FFFFFF;fontStyle=0" parent="PYFcoCn7AMZcuaxODCYF-1" vertex="1">
                    <mxGeometry x="2169.9999999999995" y="589.9999999999998" width="120" height="60" as="geometry"/>
                </mxCell>
                <mxCell id="PYFcoCn7AMZcuaxODCYF-132" value="WORK&#10;PACKAGE 3" style="whiteSpace=wrap;rounded=1;fillColor=#999999;strokeColor=none;shadow=1;fontColor=#FFFFFF;fontStyle=0" parent="PYFcoCn7AMZcuaxODCYF-1" vertex="1">
                    <mxGeometry x="2169.9999999999995" y="669.9999999999997" width="120" height="60" as="geometry"/>
                </mxCell>
                <mxCell id="PYFcoCn7AMZcuaxODCYF-133" value="WORK&#10;PACKAGE 4" style="whiteSpace=wrap;rounded=1;fillColor=#999999;strokeColor=none;shadow=1;fontColor=#FFFFFF;fontStyle=0" parent="PYFcoCn7AMZcuaxODCYF-1" vertex="1">
                    <mxGeometry x="2169.9999999999995" y="749.9999999999997" width="120" height="60" as="geometry"/>
                </mxCell>
                <mxCell id="PYFcoCn7AMZcuaxODCYF-134" value="WORK&#10;PACKAGE 5" style="whiteSpace=wrap;rounded=1;fillColor=#999999;strokeColor=none;shadow=1;fontColor=#FFFFFF;fontStyle=0" parent="PYFcoCn7AMZcuaxODCYF-1" vertex="1">
                    <mxGeometry x="2170" y="829.9999999999997" width="120" height="60" as="geometry"/>
                </mxCell>
                <mxCell id="PYFcoCn7AMZcuaxODCYF-135" value="" style="edgeStyle=elbowEdgeStyle;elbow=horizontal;rounded=0;fontColor=#000000;endArrow=none;endFill=0;strokeWidth=8;strokeColor=#23445D;" parent="PYFcoCn7AMZcuaxODCYF-1" source="PYFcoCn7AMZcuaxODCYF-123" target="PYFcoCn7AMZcuaxODCYF-125" edge="1">
                    <mxGeometry width="100" height="100" relative="1" as="geometry">
                        <mxPoint x="1950" y="440.00000000000006" as="sourcePoint"/>
                        <mxPoint x="1959.9999999999995" y="539.9999999999995" as="targetPoint"/>
                        <Array as="points">
                            <mxPoint x="1950" y="489.9999999999996"/>
                        </Array>
                    </mxGeometry>
                </mxCell>
                <mxCell id="PYFcoCn7AMZcuaxODCYF-136" value="" style="edgeStyle=elbowEdgeStyle;elbow=horizontal;rounded=0;fontColor=#000000;endArrow=none;endFill=0;strokeWidth=8;strokeColor=#23445D;" parent="PYFcoCn7AMZcuaxODCYF-1" source="PYFcoCn7AMZcuaxODCYF-123" target="PYFcoCn7AMZcuaxODCYF-126" edge="1">
                    <mxGeometry width="100" height="100" relative="1" as="geometry">
                        <mxPoint x="1960" y="439.9999999999996" as="sourcePoint"/>
                        <mxPoint x="1959.9999999999998" y="619.9999999999995" as="targetPoint"/>
                        <Array as="points">
                            <mxPoint x="1950" y="529.9999999999995"/>
                        </Array>
                    </mxGeometry>
                </mxCell>
                <mxCell id="PYFcoCn7AMZcuaxODCYF-137" value="" style="edgeStyle=elbowEdgeStyle;elbow=horizontal;rounded=0;fontColor=#000000;endArrow=none;endFill=0;strokeWidth=8;strokeColor=#23445D;" parent="PYFcoCn7AMZcuaxODCYF-1" source="PYFcoCn7AMZcuaxODCYF-123" target="PYFcoCn7AMZcuaxODCYF-129" edge="1">
                    <mxGeometry width="100" height="100" relative="1" as="geometry">
                        <mxPoint x="1960" y="439.9999999999996" as="sourcePoint"/>
                        <mxPoint x="1960" y="859.9999999999995" as="targetPoint"/>
                        <Array as="points">
                            <mxPoint x="1950" y="659.9999999999995"/>
                        </Array>
                    </mxGeometry>
                </mxCell>
                <mxCell id="PYFcoCn7AMZcuaxODCYF-138" value="" style="edgeStyle=elbowEdgeStyle;elbow=horizontal;rounded=0;fontColor=#000000;endArrow=none;endFill=0;strokeWidth=8;strokeColor=#23445D;" parent="PYFcoCn7AMZcuaxODCYF-1" source="PYFcoCn7AMZcuaxODCYF-123" target="PYFcoCn7AMZcuaxODCYF-128" edge="1">
                    <mxGeometry width="100" height="100" relative="1" as="geometry">
                        <mxPoint x="1960" y="439.9999999999996" as="sourcePoint"/>
                        <mxPoint x="1960" y="779.9999999999995" as="targetPoint"/>
                        <Array as="points">
                            <mxPoint x="1950" y="609.9999999999995"/>
                        </Array>
                    </mxGeometry>
                </mxCell>
                <mxCell id="PYFcoCn7AMZcuaxODCYF-139" value="" style="edgeStyle=elbowEdgeStyle;elbow=horizontal;rounded=0;fontColor=#000000;endArrow=none;endFill=0;strokeWidth=8;strokeColor=#23445D;" parent="PYFcoCn7AMZcuaxODCYF-1" source="PYFcoCn7AMZcuaxODCYF-123" target="PYFcoCn7AMZcuaxODCYF-127" edge="1">
                    <mxGeometry width="100" height="100" relative="1" as="geometry">
                        <mxPoint x="1960" y="439.9999999999996" as="sourcePoint"/>
                        <mxPoint x="1959.9999999999998" y="699.9999999999995" as="targetPoint"/>
                        <Array as="points">
                            <mxPoint x="1950" y="579.9999999999995"/>
                        </Array>
                    </mxGeometry>
                </mxCell>
                <mxCell id="PYFcoCn7AMZcuaxODCYF-140" value="" style="edgeStyle=elbowEdgeStyle;elbow=horizontal;rounded=0;fontColor=#000000;endArrow=none;endFill=0;strokeWidth=8;strokeColor=#23445D;" parent="PYFcoCn7AMZcuaxODCYF-1" source="PYFcoCn7AMZcuaxODCYF-124" target="PYFcoCn7AMZcuaxODCYF-130" edge="1">
                    <mxGeometry width="100" height="100" relative="1" as="geometry">
                        <mxPoint x="2140" y="440.00000000000006" as="sourcePoint"/>
                        <mxPoint x="2149.9999999999995" y="539.9999999999995" as="targetPoint"/>
                        <Array as="points">
                            <mxPoint x="2150" y="489.9999999999996"/>
                        </Array>
                    </mxGeometry>
                </mxCell>
                <mxCell id="PYFcoCn7AMZcuaxODCYF-141" value="" style="edgeStyle=elbowEdgeStyle;elbow=horizontal;rounded=0;fontColor=#000000;endArrow=none;endFill=0;strokeWidth=8;strokeColor=#23445D;" parent="PYFcoCn7AMZcuaxODCYF-1" source="PYFcoCn7AMZcuaxODCYF-124" target="PYFcoCn7AMZcuaxODCYF-131" edge="1">
                    <mxGeometry width="100" height="100" relative="1" as="geometry">
                        <mxPoint x="2150" y="439.9999999999996" as="sourcePoint"/>
                        <mxPoint x="2150" y="619.9999999999995" as="targetPoint"/>
                        <Array as="points">
                            <mxPoint x="2150" y="529.9999999999995"/>
                        </Array>
                    </mxGeometry>
                </mxCell>
                <mxCell id="PYFcoCn7AMZcuaxODCYF-142" value="" style="edgeStyle=elbowEdgeStyle;elbow=horizontal;rounded=0;fontColor=#000000;endArrow=none;endFill=0;strokeWidth=8;strokeColor=#23445D;" parent="PYFcoCn7AMZcuaxODCYF-1" source="PYFcoCn7AMZcuaxODCYF-124" target="PYFcoCn7AMZcuaxODCYF-134" edge="1">
                    <mxGeometry width="100" height="100" relative="1" as="geometry">
                        <mxPoint x="2150" y="439.9999999999996" as="sourcePoint"/>
                        <mxPoint x="2150" y="859.9999999999995" as="targetPoint"/>
                        <Array as="points">
                            <mxPoint x="2150" y="649.9999999999995"/>
                        </Array>
                    </mxGeometry>
                </mxCell>
                <mxCell id="PYFcoCn7AMZcuaxODCYF-143" value="" style="edgeStyle=elbowEdgeStyle;elbow=horizontal;rounded=0;fontColor=#000000;endArrow=none;endFill=0;strokeWidth=8;strokeColor=#23445D;" parent="PYFcoCn7AMZcuaxODCYF-1" source="PYFcoCn7AMZcuaxODCYF-124" target="PYFcoCn7AMZcuaxODCYF-133" edge="1">
                    <mxGeometry width="100" height="100" relative="1" as="geometry">
                        <mxPoint x="2150" y="439.9999999999996" as="sourcePoint"/>
                        <mxPoint x="2150" y="779.9999999999995" as="targetPoint"/>
                        <Array as="points">
                            <mxPoint x="2150" y="609.9999999999995"/>
                        </Array>
                    </mxGeometry>
                </mxCell>
                <mxCell id="PYFcoCn7AMZcuaxODCYF-144" value="" style="edgeStyle=elbowEdgeStyle;elbow=horizontal;rounded=0;fontColor=#000000;endArrow=none;endFill=0;strokeWidth=8;strokeColor=#23445D;" parent="PYFcoCn7AMZcuaxODCYF-1" source="PYFcoCn7AMZcuaxODCYF-124" target="PYFcoCn7AMZcuaxODCYF-132" edge="1">
                    <mxGeometry width="100" height="100" relative="1" as="geometry">
                        <mxPoint x="2150" y="439.9999999999996" as="sourcePoint"/>
                        <mxPoint x="2150" y="699.9999999999995" as="targetPoint"/>
                        <Array as="points">
                            <mxPoint x="2150" y="579.9999999999995"/>
                        </Array>
                    </mxGeometry>
                </mxCell>
                <mxCell id="PYFcoCn7AMZcuaxODCYF-145" value="" style="edgeStyle=elbowEdgeStyle;elbow=vertical;rounded=0;fontColor=#000000;endArrow=none;endFill=0;strokeWidth=8;strokeColor=#23445D;" parent="PYFcoCn7AMZcuaxODCYF-1" source="PYFcoCn7AMZcuaxODCYF-6" target="PYFcoCn7AMZcuaxODCYF-57" edge="1">
                    <mxGeometry width="100" height="100" relative="1" as="geometry">
                        <mxPoint x="830" y="380" as="sourcePoint"/>
                        <mxPoint x="930" y="280" as="targetPoint"/>
                    </mxGeometry>
                </mxCell>
                <mxCell id="PYFcoCn7AMZcuaxODCYF-146" value="" style="edgeStyle=elbowEdgeStyle;elbow=vertical;rounded=0;fontColor=#000000;endArrow=none;endFill=0;strokeWidth=8;strokeColor=#23445D;" parent="PYFcoCn7AMZcuaxODCYF-1" source="PYFcoCn7AMZcuaxODCYF-6" target="PYFcoCn7AMZcuaxODCYF-58" edge="1">
                    <mxGeometry width="100" height="100" relative="1" as="geometry">
                        <mxPoint x="1080" y="390" as="sourcePoint"/>
                        <mxPoint x="1180" y="290" as="targetPoint"/>
                    </mxGeometry>
                </mxCell>
                <mxCell id="PYFcoCn7AMZcuaxODCYF-147" value="" style="edgeStyle=elbowEdgeStyle;elbow=vertical;rounded=0;fontColor=#000000;endArrow=none;endFill=0;strokeWidth=8;strokeColor=#23445D;" parent="PYFcoCn7AMZcuaxODCYF-1" source="PYFcoCn7AMZcuaxODCYF-7" target="PYFcoCn7AMZcuaxODCYF-79" edge="1">
                    <mxGeometry width="100" height="100" relative="1" as="geometry">
                        <mxPoint x="1390" y="410" as="sourcePoint"/>
                        <mxPoint x="1290" y="300" as="targetPoint"/>
                    </mxGeometry>
                </mxCell>
                <mxCell id="PYFcoCn7AMZcuaxODCYF-148" value="" style="edgeStyle=elbowEdgeStyle;elbow=vertical;rounded=0;fontColor=#000000;endArrow=none;endFill=0;strokeWidth=8;strokeColor=#23445D;" parent="PYFcoCn7AMZcuaxODCYF-1" source="PYFcoCn7AMZcuaxODCYF-7" target="PYFcoCn7AMZcuaxODCYF-80" edge="1">
                    <mxGeometry width="100" height="100" relative="1" as="geometry">
                        <mxPoint x="1480" y="400" as="sourcePoint"/>
                        <mxPoint x="1580" y="300" as="targetPoint"/>
                    </mxGeometry>
                </mxCell>
                <mxCell id="PYFcoCn7AMZcuaxODCYF-149" value="" style="edgeStyle=elbowEdgeStyle;elbow=vertical;rounded=0;fontColor=#000000;endArrow=none;endFill=0;strokeWidth=8;strokeColor=#23445D;" parent="PYFcoCn7AMZcuaxODCYF-1" source="PYFcoCn7AMZcuaxODCYF-8" target="PYFcoCn7AMZcuaxODCYF-101" edge="1">
                    <mxGeometry width="100" height="100" relative="1" as="geometry">
                        <mxPoint x="1600" y="400" as="sourcePoint"/>
                        <mxPoint x="1700" y="300" as="targetPoint"/>
                    </mxGeometry>
                </mxCell>
                <mxCell id="PYFcoCn7AMZcuaxODCYF-150" value="" style="edgeStyle=elbowEdgeStyle;elbow=vertical;rounded=0;fontColor=#000000;endArrow=none;endFill=0;strokeWidth=8;strokeColor=#23445D;" parent="PYFcoCn7AMZcuaxODCYF-1" source="PYFcoCn7AMZcuaxODCYF-8" target="PYFcoCn7AMZcuaxODCYF-102" edge="1">
                    <mxGeometry width="100" height="100" relative="1" as="geometry">
                        <mxPoint x="1830" y="400" as="sourcePoint"/>
                        <mxPoint x="1930" y="300" as="targetPoint"/>
                    </mxGeometry>
                </mxCell>
                <mxCell id="PYFcoCn7AMZcuaxODCYF-151" value="" style="edgeStyle=elbowEdgeStyle;elbow=vertical;rounded=0;fontColor=#000000;endArrow=none;endFill=0;strokeWidth=8;strokeColor=#23445D;" parent="PYFcoCn7AMZcuaxODCYF-1" source="PYFcoCn7AMZcuaxODCYF-5" target="PYFcoCn7AMZcuaxODCYF-123" edge="1">
                    <mxGeometry width="100" height="100" relative="1" as="geometry">
                        <mxPoint x="1950" y="400" as="sourcePoint"/>
                        <mxPoint x="2050" y="300" as="targetPoint"/>
                    </mxGeometry>
                </mxCell>
                <mxCell id="PYFcoCn7AMZcuaxODCYF-152" value="" style="edgeStyle=elbowEdgeStyle;elbow=vertical;rounded=0;fontColor=#000000;endArrow=none;endFill=0;strokeWidth=8;strokeColor=#23445D;" parent="PYFcoCn7AMZcuaxODCYF-1" source="PYFcoCn7AMZcuaxODCYF-5" target="PYFcoCn7AMZcuaxODCYF-124" edge="1">
                    <mxGeometry width="100" height="100" relative="1" as="geometry">
                        <mxPoint x="2210" y="400" as="sourcePoint"/>
                        <mxPoint x="2310" y="300" as="targetPoint"/>
                    </mxGeometry>
                </mxCell>
                <mxCell id="PYFcoCn7AMZcuaxODCYF-153" value="" style="edgeStyle=elbowEdgeStyle;elbow=vertical;rounded=0;fontColor=#000000;endArrow=none;endFill=0;strokeWidth=8;strokeColor=#23445D;" parent="PYFcoCn7AMZcuaxODCYF-1" source="PYFcoCn7AMZcuaxODCYF-2" target="PYFcoCn7AMZcuaxODCYF-3" edge="1">
                    <mxGeometry width="100" height="100" relative="1" as="geometry">
                        <mxPoint x="590" y="250" as="sourcePoint"/>
                        <mxPoint x="690" y="150" as="targetPoint"/>
                    </mxGeometry>
                </mxCell>
                <mxCell id="PYFcoCn7AMZcuaxODCYF-154" value="" style="edgeStyle=elbowEdgeStyle;elbow=vertical;rounded=0;fontColor=#000000;endArrow=none;endFill=0;strokeWidth=8;strokeColor=#23445D;" parent="PYFcoCn7AMZcuaxODCYF-1" source="PYFcoCn7AMZcuaxODCYF-2" target="PYFcoCn7AMZcuaxODCYF-4" edge="1">
                    <mxGeometry width="100" height="100" relative="1" as="geometry">
                        <mxPoint x="600" y="260" as="sourcePoint"/>
                        <mxPoint x="700" y="160" as="targetPoint"/>
                    </mxGeometry>
                </mxCell>
                <mxCell id="PYFcoCn7AMZcuaxODCYF-155" value="" style="edgeStyle=elbowEdgeStyle;elbow=vertical;rounded=0;fontColor=#000000;endArrow=none;endFill=0;strokeWidth=8;strokeColor=#23445D;" parent="PYFcoCn7AMZcuaxODCYF-1" source="PYFcoCn7AMZcuaxODCYF-2" target="PYFcoCn7AMZcuaxODCYF-6" edge="1">
                    <mxGeometry width="100" height="100" relative="1" as="geometry">
                        <mxPoint x="610" y="270" as="sourcePoint"/>
                        <mxPoint x="710" y="170" as="targetPoint"/>
                    </mxGeometry>
                </mxCell>
                <mxCell id="PYFcoCn7AMZcuaxODCYF-156" value="" style="edgeStyle=elbowEdgeStyle;elbow=vertical;rounded=0;fontColor=#000000;endArrow=none;endFill=0;strokeWidth=8;strokeColor=#23445D;" parent="PYFcoCn7AMZcuaxODCYF-1" source="PYFcoCn7AMZcuaxODCYF-2" target="PYFcoCn7AMZcuaxODCYF-7" edge="1">
                    <mxGeometry width="100" height="100" relative="1" as="geometry">
                        <mxPoint x="620" y="280" as="sourcePoint"/>
                        <mxPoint x="720" y="180" as="targetPoint"/>
                    </mxGeometry>
                </mxCell>
                <mxCell id="PYFcoCn7AMZcuaxODCYF-157" value="" style="edgeStyle=elbowEdgeStyle;elbow=vertical;rounded=0;fontColor=#000000;endArrow=none;endFill=0;strokeWidth=8;strokeColor=#23445D;" parent="PYFcoCn7AMZcuaxODCYF-1" source="PYFcoCn7AMZcuaxODCYF-2" target="PYFcoCn7AMZcuaxODCYF-8" edge="1">
                    <mxGeometry width="100" height="100" relative="1" as="geometry">
                        <mxPoint x="630" y="290" as="sourcePoint"/>
                        <mxPoint x="730" y="190" as="targetPoint"/>
                    </mxGeometry>
                </mxCell>
                <mxCell id="PYFcoCn7AMZcuaxODCYF-158" value="" style="edgeStyle=elbowEdgeStyle;elbow=vertical;rounded=0;fontColor=#000000;endArrow=none;endFill=0;strokeWidth=8;strokeColor=#23445D;" parent="PYFcoCn7AMZcuaxODCYF-1" source="PYFcoCn7AMZcuaxODCYF-2" target="PYFcoCn7AMZcuaxODCYF-5" edge="1">
                    <mxGeometry width="100" height="100" relative="1" as="geometry">
                        <mxPoint x="640" y="300" as="sourcePoint"/>
                        <mxPoint x="740" y="200" as="targetPoint"/>
                    </mxGeometry>
                </mxCell>
            </root>
        </mxGraphModel>
    </diagram>
    <diagram id="Wt5kYSfPavTcEV09-xB0" name="Page-5">
        <mxGraphModel dx="1024" dy="592" grid="1" gridSize="10" guides="1" tooltips="1" connect="1" arrows="1" fold="1" page="1" pageScale="1" pageWidth="850" pageHeight="1100" math="0" shadow="0">
            <root>
                <mxCell id="f_rBqKKko_PxkeJFWGyK-0"/>
                <mxCell id="f_rBqKKko_PxkeJFWGyK-1" parent="f_rBqKKko_PxkeJFWGyK-0"/>
                <mxCell id="f_rBqKKko_PxkeJFWGyK-2" value="" style="rounded=0;whiteSpace=wrap;html=1;shadow=1;" vertex="1" parent="f_rBqKKko_PxkeJFWGyK-1">
                    <mxGeometry x="80" y="280" width="120" height="60" as="geometry"/>
                </mxCell>
                <mxCell id="f_rBqKKko_PxkeJFWGyK-3" value="" style="rounded=0;whiteSpace=wrap;html=1;shadow=1;" vertex="1" parent="f_rBqKKko_PxkeJFWGyK-1">
                    <mxGeometry x="320" y="140" width="120" height="60" as="geometry"/>
                </mxCell>
                <mxCell id="f_rBqKKko_PxkeJFWGyK-4" value="" style="rounded=0;whiteSpace=wrap;html=1;shadow=1;" vertex="1" parent="f_rBqKKko_PxkeJFWGyK-1">
                    <mxGeometry x="320" y="280" width="120" height="60" as="geometry"/>
                </mxCell>
                <mxCell id="f_rBqKKko_PxkeJFWGyK-5" value="" style="rounded=0;whiteSpace=wrap;html=1;shadow=1;" vertex="1" parent="f_rBqKKko_PxkeJFWGyK-1">
                    <mxGeometry x="320" y="420" width="120" height="60" as="geometry"/>
                </mxCell>
            </root>
        </mxGraphModel>
    </diagram>
</mxfile>